<mxfile host="Electron" modified="2023-09-22T10:33:08.034Z" agent="Mozilla/5.0 (Windows NT 10.0; Win64; x64) AppleWebKit/537.36 (KHTML, like Gecko) draw.io/21.7.5 Chrome/114.0.5735.289 Electron/25.8.1 Safari/537.36" etag="tj80f9qT-rpfZ_v2dSp7" version="21.7.5" type="device">
  <diagram name="Page-1" id="qbeAzUdEjmkz75DEbVRo">
    <mxGraphModel dx="2261" dy="836" grid="1" gridSize="10" guides="1" tooltips="1" connect="1" arrows="1" fold="1" page="1" pageScale="1" pageWidth="827" pageHeight="1169" math="0" shadow="0">
      <root>
        <mxCell id="0" />
        <mxCell id="1" parent="0" />
        <mxCell id="9Bd9de8_5ob_pkCl6xLQ-38" value="" style="group" vertex="1" connectable="0" parent="1">
          <mxGeometry x="-20" y="10" width="890" height="760" as="geometry" />
        </mxCell>
        <mxCell id="9Bd9de8_5ob_pkCl6xLQ-37" value="" style="rounded=1;whiteSpace=wrap;html=1;" vertex="1" parent="9Bd9de8_5ob_pkCl6xLQ-38">
          <mxGeometry width="890" height="760" as="geometry" />
        </mxCell>
        <mxCell id="9Bd9de8_5ob_pkCl6xLQ-1" value="PostgresDB" style="shape=cylinder3;whiteSpace=wrap;html=1;boundedLbl=1;backgroundOutline=1;size=15;" vertex="1" parent="9Bd9de8_5ob_pkCl6xLQ-38">
          <mxGeometry x="60" y="377" width="90" height="110" as="geometry" />
        </mxCell>
        <mxCell id="9Bd9de8_5ob_pkCl6xLQ-12" value="" style="group" vertex="1" connectable="0" parent="9Bd9de8_5ob_pkCl6xLQ-38">
          <mxGeometry x="230" y="360" width="390" height="194" as="geometry" />
        </mxCell>
        <mxCell id="9Bd9de8_5ob_pkCl6xLQ-8" value="" style="rounded=1;whiteSpace=wrap;html=1;" vertex="1" parent="9Bd9de8_5ob_pkCl6xLQ-12">
          <mxGeometry width="390" height="160" as="geometry" />
        </mxCell>
        <mxCell id="9Bd9de8_5ob_pkCl6xLQ-5" value="Amazon API Gateway" style="sketch=0;outlineConnect=0;fontColor=#232F3E;gradientColor=none;strokeColor=#ffffff;fillColor=#232F3E;dashed=0;verticalLabelPosition=middle;verticalAlign=bottom;align=center;html=1;whiteSpace=wrap;fontSize=10;fontStyle=1;spacing=3;shape=mxgraph.aws4.productIcon;prIcon=mxgraph.aws4.api_gateway;" vertex="1" parent="9Bd9de8_5ob_pkCl6xLQ-12">
          <mxGeometry x="44.083928571428565" y="25" width="95.2017857142857" height="95" as="geometry" />
        </mxCell>
        <mxCell id="9Bd9de8_5ob_pkCl6xLQ-7" value="Lambda&#xa;Function" style="sketch=0;outlineConnect=0;fontColor=#232F3E;gradientColor=none;strokeColor=#232F3E;fillColor=#ffffff;dashed=0;verticalLabelPosition=bottom;verticalAlign=top;align=center;html=1;fontSize=12;fontStyle=0;aspect=fixed;shape=mxgraph.aws4.resourceIcon;resIcon=mxgraph.aws4.lambda_function;" vertex="1" parent="9Bd9de8_5ob_pkCl6xLQ-12">
          <mxGeometry x="319.9952173913043" y="42.5" width="60" height="60" as="geometry" />
        </mxCell>
        <mxCell id="9Bd9de8_5ob_pkCl6xLQ-10" value="" style="endArrow=classic;startArrow=classic;html=1;rounded=0;" edge="1" parent="9Bd9de8_5ob_pkCl6xLQ-12" source="9Bd9de8_5ob_pkCl6xLQ-5" target="9Bd9de8_5ob_pkCl6xLQ-7">
          <mxGeometry width="50" height="50" relative="1" as="geometry">
            <mxPoint x="61.04347826086957" y="74" as="sourcePoint" />
            <mxPoint x="145.82608695652175" y="24" as="targetPoint" />
          </mxGeometry>
        </mxCell>
        <mxCell id="9Bd9de8_5ob_pkCl6xLQ-11" value="API" style="text;html=1;strokeColor=none;fillColor=none;align=center;verticalAlign=middle;whiteSpace=wrap;rounded=0;" vertex="1" parent="9Bd9de8_5ob_pkCl6xLQ-12">
          <mxGeometry x="145.82608695652175" y="164" width="101.7391304347826" height="30" as="geometry" />
        </mxCell>
        <mxCell id="9Bd9de8_5ob_pkCl6xLQ-33" value="Sequelize ORM" style="text;html=1;strokeColor=none;fillColor=none;align=center;verticalAlign=middle;whiteSpace=wrap;rounded=0;" vertex="1" parent="9Bd9de8_5ob_pkCl6xLQ-12">
          <mxGeometry x="180.00214285714281" y="82" width="83.57142857142857" height="30" as="geometry" />
        </mxCell>
        <mxCell id="9Bd9de8_5ob_pkCl6xLQ-35" value="serverless.js" style="text;html=1;strokeColor=none;fillColor=none;align=center;verticalAlign=middle;whiteSpace=wrap;rounded=0;" vertex="1" parent="9Bd9de8_5ob_pkCl6xLQ-12">
          <mxGeometry x="44.08214285714283" y="120" width="83.57142857142857" height="30" as="geometry" />
        </mxCell>
        <mxCell id="9Bd9de8_5ob_pkCl6xLQ-16" value="Liquibase" style="rounded=1;whiteSpace=wrap;html=1;" vertex="1" parent="9Bd9de8_5ob_pkCl6xLQ-38">
          <mxGeometry x="45" y="575" width="120" height="60" as="geometry" />
        </mxCell>
        <mxCell id="9Bd9de8_5ob_pkCl6xLQ-17" value="" style="endArrow=classic;startArrow=classic;html=1;rounded=0;exitX=0.5;exitY=0;exitDx=0;exitDy=0;entryX=0.5;entryY=1;entryDx=0;entryDy=0;entryPerimeter=0;" edge="1" parent="9Bd9de8_5ob_pkCl6xLQ-38" source="9Bd9de8_5ob_pkCl6xLQ-16" target="9Bd9de8_5ob_pkCl6xLQ-1">
          <mxGeometry width="50" height="50" relative="1" as="geometry">
            <mxPoint x="180" y="350" as="sourcePoint" />
            <mxPoint x="230" y="300" as="targetPoint" />
          </mxGeometry>
        </mxCell>
        <mxCell id="9Bd9de8_5ob_pkCl6xLQ-18" value="" style="endArrow=classic;startArrow=classic;html=1;rounded=0;exitX=1.033;exitY=0.573;exitDx=0;exitDy=0;exitPerimeter=0;entryX=0;entryY=0.5;entryDx=0;entryDy=0;" edge="1" parent="9Bd9de8_5ob_pkCl6xLQ-38" source="9Bd9de8_5ob_pkCl6xLQ-1" target="9Bd9de8_5ob_pkCl6xLQ-8">
          <mxGeometry width="50" height="50" relative="1" as="geometry">
            <mxPoint x="180" y="350" as="sourcePoint" />
            <mxPoint x="230" y="300" as="targetPoint" />
          </mxGeometry>
        </mxCell>
        <mxCell id="9Bd9de8_5ob_pkCl6xLQ-19" value="" style="endArrow=classic;startArrow=classic;html=1;rounded=0;exitX=0.5;exitY=0;exitDx=0;exitDy=0;entryX=0.5;entryY=1;entryDx=0;entryDy=0;" edge="1" parent="9Bd9de8_5ob_pkCl6xLQ-38" source="9Bd9de8_5ob_pkCl6xLQ-8" target="9Bd9de8_5ob_pkCl6xLQ-14">
          <mxGeometry width="50" height="50" relative="1" as="geometry">
            <mxPoint x="180" y="350" as="sourcePoint" />
            <mxPoint x="230" y="300" as="targetPoint" />
          </mxGeometry>
        </mxCell>
        <mxCell id="9Bd9de8_5ob_pkCl6xLQ-22" value="" style="group" vertex="1" connectable="0" parent="9Bd9de8_5ob_pkCl6xLQ-38">
          <mxGeometry x="310" y="30" width="230" height="200" as="geometry" />
        </mxCell>
        <mxCell id="9Bd9de8_5ob_pkCl6xLQ-14" value="" style="rounded=1;whiteSpace=wrap;html=1;" vertex="1" parent="9Bd9de8_5ob_pkCl6xLQ-22">
          <mxGeometry width="230" height="200" as="geometry" />
        </mxCell>
        <mxCell id="9Bd9de8_5ob_pkCl6xLQ-4" value="DB" style="shape=cylinder3;whiteSpace=wrap;html=1;boundedLbl=1;backgroundOutline=1;size=15;" vertex="1" parent="9Bd9de8_5ob_pkCl6xLQ-22">
          <mxGeometry x="85" y="20" width="60" height="80" as="geometry" />
        </mxCell>
        <mxCell id="9Bd9de8_5ob_pkCl6xLQ-13" value="" style="endArrow=classic;startArrow=classic;html=1;rounded=0;exitX=0.5;exitY=0;exitDx=0;exitDy=0;entryX=0.5;entryY=1;entryDx=0;entryDy=0;entryPerimeter=0;" edge="1" parent="9Bd9de8_5ob_pkCl6xLQ-22" source="9Bd9de8_5ob_pkCl6xLQ-21" target="9Bd9de8_5ob_pkCl6xLQ-4">
          <mxGeometry width="50" height="50" relative="1" as="geometry">
            <mxPoint x="77.93" y="121" as="sourcePoint" />
            <mxPoint x="47.93000000000001" y="240" as="targetPoint" />
          </mxGeometry>
        </mxCell>
        <mxCell id="9Bd9de8_5ob_pkCl6xLQ-21" value="" style="shape=image;verticalLabelPosition=bottom;labelBackgroundColor=default;verticalAlign=top;aspect=fixed;imageAspect=0;image=data:image/png,iVBORw0KGgoAAAANSUhEUgAAAjMAAAB0CAYAAABwkLM/AAA4tklEQVR42u2dCXAc13nnWWU7tlJWIq+TrdheB954V17vll3eteXEDlLRlpONV7YcpmwHtsyyKFsHLxFDnAQBkAQw5OAkQRyUCAwOUriIg4OLIG4MDgIgQBLgTZHDQ6RoyNmtgiIlcLwwp/d9A/Sgp9HHe92vewbk96/6FyRg0NMYNKZ//L7v/966dSgUCoVCoVAoc3r++ec3fv/733+ffBQec98lr8OzeEWgUCgUCrWGtH79+i8gxIQCDV4VKBQKhUKtrapMKwJMqH/wgx/sxSsDhUKhUKg1IGipILysNrTcoGKFVwgKhUKhUJFflZlFeFF1NV4hKBQKhUJFNshsRGDRrdA8i1cKCoVCoVARqPXr1z+F6SUqe/FqQaFQKBQqAkVAphBBhdob8YpBoVAoFCqyqjIYxWaMakMlC68cFAqFQqEiRNA6QUDBqDYKhUKhUGtSGMU2boxqo1AoFAoVGVWZuwgmht2KVxAKhUKhUOEFGQcCCUa1USgUCoVak8IoNjfP4tWEQqFQKFR4qjLVCCIY1UahUCgUak3queee+xoCCPd9mzCqjUKhUCiUjVUZjGLzB5pCvLJQKBQKhbIHZNYjfGBUG4VCoVCotQwzGMXGfZtQKBQKhVqbglVrrbiJP7Nxi/Dp1GIq/2FWlfCdFzbyP4dducI3W84I32oY0fVfHu0RvvvyFoxqo1AoFAq1lgQtECui2N/9hx8KH9tfK6zLbaTyR96aFD5dOcj3HH70j8LH2m8IXzr1tvD18V9TGaDGqn2b8GpDoVAoFMoCWRXF/ny8ixpkfi/3uLCu+37Az8SmcTuHp7PeDBzz93rfFb4+fJ8aaL6Tmm0V0DjwikOhUCgUiqOs2n/pr3/yIjXIBNx8JQgzTzRd4HIO0LISjwn+055b1DDzzVNXhe/9OAaj2igUCoVCrYGqjCVRbJiBoa7KFLaGQAcYKipmz+FP3ji56rj/ffAONdA8m1tuVXWmGq88FAqFQqH4gMxGq4Z+qedksuuFde2+VdABcy4w72L0HL69KX7VMcGf7qaHmWeG7grPbXjJEqCBxQnxCkShUCgUyoSg1WFVFPuJrCpqmPlo2YAidIA/X9hk/ByaLqge96s9N6iBBtJNGNVGoVAoFCoCZVUU++ltadQg87GcBmHdyTuq0AH+65c2M5/Df0s7qHnM3+97lxpmwP9ra4JVQLMer0QUCoVCoYxVZb5gxc35Oz/+KXMUWws6Am0hxqi2GMXWO+4XT9FXZ/6i9SxGtVGoMKqxsTG6oaHJ0dDQ6Dp+vNErd0PD8bG6ujoHGF8ta1RcXBxTUlLiKCoqriP2KthTVARfL8HfAcoepaamjh48eFA4IPcBJR/QdVFRkVBQUCB8I4++vfTkoVZd4BAdV+IW8vPzqfz3Ve1Ux/xIz33hmbEH1ECz5egJIS8vTygsLBTIH7SQm5sr5Gg5J9QFBQcCzs7ODjF5g7jU2dlZ1tbWVqLlVrlb1V1TU/MVtd/95cuXHeALEl+8eDH5woUL8DHz3LlzDqmtugYnJ6cdco+PT6aMj487tDw6Ohmtdkz4GjxmTMtj+ibHyFt+bMrY2FjGwMCAQ829vb2Z3d19jqB7e5P7+gYcoe4LWum8yeeju8nXAu6mcbfjFPkeq98nOjo6YtrbOx1St7a2J3s87Q5lexwtLS1RnOAl5nhjo5d8nCf2Ewt6JiAj9SLxXH19vZt85Ppa1dbWRpG/MYfc1dXHUqqqjjnkrq6uTlmb8FLqKi4umSGQ8uGhQ4cEdhctHCoq8h06VOwm75lRa+FnJu/J0ftzchyiXa6cFKfT6dBwdBju31HEDhqnEO9MTY2x6jySUlIcSUk7M5OS4KPcSQHHJSSkEDvi4lYcHx9v/nUbHBwquXfvnsDLd+/eFW7fvi3UnbnAFsX2XKeGmc5rdwLPQeO0c3epj/unQ7+ihpm/mnhPmL3hE27cuCG8/fbbzL527bpw5coVVV+6dImbz58//1AJaAjEdF2/fl3l/K4J5OsCgZqgZ2dn4Vj9PP8ATp8+HzV99uwCASVB7qmpKeHMmTOanpycXFQFpDNn/HrfT2vxXE6fHheGhoZUPTg4KPT09MjcKxBAEfr7+1eZfN6zGmb6F5Ueq2P/qVPWAQ0BmTQC2YLc5PMCgWtVt7a2+sxUXxobm2bIx0UaeJGbgIscaKReqCVgAyBi9rWpqambkx//2LFjAoEWVVdWHo1ZCzdzqLwQgPHBP1ClNgYzq+BmDsAmokFm/35B7j179qh67969fgI0toLazp0pc4mJiQKLeQNNAGSSkhekz0EARdHbt28XXn/99RCTz/lNn8TtO3ce8gKZd955JwgRf151ihpk/qhyiBo4fjj+DjXIiP7cwD3q43+bQAot0KSev2cJyPCGGTC5qZTIf/cEULzwNYAW8XkBYuAc4b8BXmZmZgBggoAxfe6cl+cfwfT02XklkAk81/S0LmSMj09cVTs2L5AhwEQg5rQwOjoqDAwMBIBFC2gAXFYDTY/Q29u7CkJ6+/pWvZ69vX0zBmAGnsNnGcx0di4qwQxYC2Y8nja3MYhp9hkBGKkbGhq0YEa0v7auzmsGampr6+ZZQAZcVVUV0a2X0tJSd1Fx8aIcYvgDTcCLBGy8kVat2b8/2ycHmYyMDE2YAWdmZnntPM/k5OR5VpiBCo2VICM6ISFhFcyEgsx2YevWrUJs7A5zUDs+MXHu3Xff5VaVuXNnqWKSOzhFDTKfONCiO/Qr+sne+8LI23eYYabu8h1qmHmy/wHTMPDYtZvcQQYMgGEXzMh98eJF4ezZswGvAgyOMENgxacGMoHKjA7MTExMaN68eUIM2Ov1BmAGzF6dUYYaJZg5OTAQBZUWI0ADLSfeb5btHR1eNZABt7e3q1Rl2uZZngdaUjwgRvTx48dpYGYFamrrvGZhhgZklmDmaGbkVmKKF7QgxgKYkUBNcVEkvA75+flRBF78UpDZt2+fLsgsV2cWHxeY0QIZpSrNjh1xIRCzefNmYXusY9LUSZw8efIr9wnI8IIZsb00+/ZN4cmDLfSzMm+NU4NG7DR7VSZYKRqmr878+fgcNcxsmH7AHWTCDTNQiRFhRg41vGBGD2SWKjNntUDm/+g9h1GIIccOgRjRIsjQAI1adUZqeIwSzCzPzXiMwAz5vgWeb5TkfSKKAItfC2bUWk0wM0NfjWl20c7CsJgBZkT/tqamPsYIzNCCzLLzIgpi3O6o0tLDV2kgxkKYEdtP84WFhV8Nb4spxyOvyhBIoYIZcFZWlvtxgJmkpKR7tM8JVZrt22ODEAMmUGO+mnzx4qV/epcTzEjbS7GdY/QgU9RGDRjQKpr13TYMM1DRoX2uwL5NDNUZz+VbXEHGilYTLcxAWwlAQg4zogmEnDF77U1NT8/ogYxolYrJAoGNKN4wowYx8qoMDdDoVWckVZoptfM3ODsDMzrc3kgJqPi0QEat1eTx0M3K8K7GcICZgFmqNAAzjCATUW2mN98sjzly5Mhvi4uLBSaYsRBoCgoK/PkHDrjC1mJyuRalIOOkrMqIzsjImH/UYSYhIfGBtOKyIy4u8NHhcAixywZ4kbaVRIhZApnYe6Z/ePIm+iMRZMD379/n0l4auXSNaehXayE7ud+8eNcwyIh+6cw71M/3pWH6YeC/m5zTBpnr7CDDuzpDAzPLA756MGOqMkO+300LMkowQwsyLDAzPj4ujI2NKUKMWlUmaI35meU5Fj2rvp6QZjICM9CigoqK6fZSe6eDBmTEVpPH4xGam5uFpQrLiWg6kGlcsApkKIaANV1TVzdHM0tDQOZDFpCJJJgpKysrIiDjP3z4MBPIWF2dgXQoOL+gwGN/VSbXxTL0q2an0xnzqMKMwxHnkw/x0njLli0BkNm6bdsCgSDzM1K3bt1aDIWZd7lUZf62ppcaZD71Zjd922f4nmmQCbTAfLcDcze0Ue0/H6cfBi68cJcryNgNM7OzFwIgYyXMsIKMQqLJPzYxQf0GoTkPQwkxWlUZ0VoDwWZgZrndNG+wOmO6HdjR0TlPCzIETAIzKgAQTU0tus/d2NgSY0VbafUQ8HHDMBNMPekATXX10fm1CDMEZNwEZIQ333zTEMhYBTOwvIcIM+C8/HyfvTCTPS8FmawspyGYycjI9NkNM/KB27i4OOL4gHfs2CE4HEtOStqZbPT54uITPUZARoQZbiBD3mBLpCATgBkTrabgkC1rFFth/yUeUWyeUe3PDT1gimrPXL/BDWQCMMOx1aQFMxC7FkFGaV6GB8xMTk25WEFGBjNMIKMGMyLE6AEMVVWGot1EUZ3Rg5log9UZwUxUu72z000DMuS6Ek6cOBGEmeONjYt6a8vYBTIGhoANAc1ahBkRZMCs7SWrYUYKMnYDjcuVG8OjKiOpzlie0CJw8i+sUJGQkGTo+ouLS3AbBRnwtm2vPyTAxWceCgBEDjNG52bE9hL4y0c6qUHm3x0dsTSKrecvD9EPA/8lwzDwjnP3uYEM77kZNZiB5JIUZM6d4w8zBEhiCJj4DcHMcqIJFr9jfV6tZBKt9aoyNEAD6SWjMAMyGtUm32eob7889PtQb+gX2koAMkswcyIADs3NzW6K1pItIGN2biZkhkYDaNYazEhBxmh7ySqggYVZlWAm0HLKz5+xfFZGFsfOzMw0BTMZNsS0CczMb9u2TYiNjbUUZsyCDKwl44iL+wWXH3p6+qxPCWSMwIy0vZTWM2FZFNvM0G84otq9V3zcQCYAM5xaTUowMzs7e15cR4amxWQEZsjjtxkFGXGtmfGJCUMDrWYgRjS0kGhhRg1o4PNmYObkSXuj2h0dJ3Wj2CLESGEGVufVB5mmBTtBxuzcTMgMTY3y1ghrCWaWh30Fs+0lq2AGVlVXgxlwQUGBZSmh5Ti2JIptripjV0ybwMwHADOiX9++XXFhOjMwk5iYGGMSZIS4uEQ+M0QQxVYDGSMwE5xDYYxif7x2ypYotpZv3bol/M0ofbvpG2P0w8Abph5wAxmeczNKMHPu3HmvFGR4wwxUZMj3+APfB99vAGYIkBwzes2bgRjw8PAwE8hozc9oRLWpXs+ent4utVWEdaLaTG+mBFSiadpKSm5qanFot5ca79oNMgyL5+mlm3xrvc3kdrujYNiXR3sJTL5/rqio5Bjs0aT0fIWFpdGHDhW7igJbGBzy64EMbA2jBTISoLFksNblyvEajWKHM6YdFxf/oRRmpFaDGhaYAZCBqooZmIGqDrcf+OrVax9owQxLoklcUyaQEPIMWxbFtgJkfD5foA00eOUGU1T7WwwrAx+bvckVaOyEGS2QYYGZwDYF09MLasehm5eZNtUnNwQwIyNzw8MjXvDg4NDkwMCgl0AKtfsHBqaWvifUfX0DYzCUu+SeoFlSR+Txi+L6NFYNA3d0dM7RtJVW26P5u2psbnYFZmqWzQFSFo8fb5yBjSZh3yal5yQQ8zL5uru+vsEHi+KZSTU9CgPAR46Uz3FoL/kJvHhLS0uZ57Fg64JDh4oW1WAG9tKjgZm8vLwFqKLwh5mVOPY+xii2tjMWrPy9xickzEOLSQ1oREvbULQwE3Eg0zswkKwFMiyJJml7iTWKva75CjVAQCuIdzVGvo/StsnblkW1py9fjajqjJ0wc/q8NsjQQI1ZkDEKM+siWF3d3Q5pVYe6OkMZ1W7vVI5iK7WVZPY3N7d9Vau9RADGL4UZE1Az39DUZAgEljeZnH8c00wEZFxm20sEYuaNQIxUsGXBoeLimdVVmUNUILMCNAVcZ1Gys3PcVlRlVrY4cDqshBlIKunBTLAN9fp2IT4+MUP3uPHxUWZBZseO+EmuP6w8iq0IM5StJunQL8v+S58q77M9ii2vxsg9fe2G8GTvPeqo9rcZotrOc3fWHMzoDf/SwAwLyASPKV9leHqay4JTjxrMgLq7e+b19nsyum9Tp8L+S1ptJUlVxqvdXmr2KYEMI9gsGIUYuQiguJZ30dYDmUWadWYiHWaW20uLZtpLsFs2z3OC9pO09VRQUMAEM8sDwdH8YGYljm00ih2umDbADCxUt5QWogMavcoMgEysw7FgBmRgLRquP+jw6GgLtJD0YIZmbkbaXrIyim1k/yXaaozcrnO3LItqD1/iMwjMI6JNBzPnTMPM1PS0jwVkFI7/r7SL4j2OMHPq1Klota0RKIAmRmPo18PWVgp6kTzuKY05mWgakNGGmibuKRaAFAIrc1p7NdFuaxDpMHPkSJlXBJnSUvb2Emw6acV5FRYXx4hAwwoyPOPartzQODZvkJHEtKOthBmW6owWzADIOEyCTGzsjjnuRH6HAAi0hmiAhra9FNiJuqTVkv2XYJVeK6sxSv6ml35l4G8zRLVjz96LmLkZO2CGA8gs8AKZRxVmlqoz3TNa+z2xRrXl+y9RtJUkbnXxqMqoQ02zpcOTtXV1HuXkEv3+TJEMM+R5nhKHfo20l2A+xsrzKywsjpEvkmd3dWZ/9koc22wUOxwxbRFmWKozWjBDjjOvl4bSBhkHn0XxZDeruwAhovWAhra9xLL/0sfDEMXWq8bI/dYF+qrR7/ex7dvUfOFGRES0u7q6jurBDCVweK0AGUg9TU5OPsfz+n9UYQbgg4CLXz3u3atVnXGvrsp0+tjaSsH20rw2yLBXZULc1FRnx+tZuzRLI0ku1TMBVCTDjJnF8YqLS+bsOMeCggNuozBDfMvMc+fl5X01OPRrYVVmOabttxpmYHVfMzADrSGaNJStINPV0/MjKcjQAI1aoknaXmKNYn+i4Tw1KOTO3rWtGiP3P4zRrz3zjVH6YeCfTb0b9rkZWOGX3HxKrIIZ8jmPWZCZmJjiHrd8VGFmuTrjodjEUjGqLR0G7ujoiGFsK0nWlmmN0YEZj3GYafTa+XqKFRpWkGGFmcrKSqGiokJwu6uS7fi5CMQsGGovFRcvwrCuXa9/fn7BnEGYeWiqxSSJY2dkZFgKM1bFtENhhq46owQzcpAJHRp+XRdsYFg4Pj6Zfyvt8pUrHyjBjBbQqMGMFBh+eHyAfqXfw53UgACr8poBmZs3bxoGGTGqzTIM/Bcs+zadvxW2VpO4VYEezNC0mJRgBvZbMgkywsTEmZeteIM0sq7MujWk7uWotj7U9MmrM15JVeaf2dpKdFFs0PHGxgWDILOwln4PWjBTVVUVBJjy8vKgyf87bACZaOPtpVJbd6zOzy+Mzs3N8xsDmnzD50ogxs8axYYKi9PpdMBHVpjZvXvPv1oNM2BWmImPj59hSUPJwQZAJi4xkf/6P4NDQyVqIKMHNFrtpc7zlyMuiu3z3TIFMaKvX7/OFNV+eph+GPiL3neFyUtXba/OSLcqsAJmzIAMrOx7ZmoKVuhtseoNkhVmYHG7tXQT7eoKjWrrWZyngY8wSNzW1t7C1lZaiWLr779kvMXU0NT08lqGmSC8uN0hAGM/zJR5DLaX5sPxOuYVFHiNwExOTs4DI88njWOzRLGzsrICA+kZmVk+eojZLezatUtISUkR0vfscVgJMzSDwFKYgXVgaEFGbVE+S0AGdPPmzUU9mFEDGq2hX5Yo9h9VDlGDwd+OvWN7NQbg5dq1a8LVq1cDkACeuHhF+Gwf/TDwtyiGgb99+leBx24Z99kOM9KtCnjDzPLqvkwAI+6zNDExEdjskdjS4U4WkBkZGQms4LtujUke1aaFmo7OzkUDEEMVxQbBHk0GqzJza+13UFVV/UFFRaXg1oAXucvK3Bk2wMx7RtJLdldlVqoz+VGGYCY39/8ZazG5FgJRbKfTUCoJPtI8PjU1NQAxotPS0ueshBkwQAYNzJgBGdFxcXHWvI+TG8QwDcioAY1aeyl3cIoaZJ6AoV8Lo9hGqjEAL1evXgtCgZoPTb9Nfd5/MqA/DAx7O4mP771wzbaItnzPJT2YYaioeKXbFOhWX5b3R1qGl6BPj49bvgsua1VmLcKMWlRbyydPngzscm0QZqi2RzCaYmpoaHattd+B210xTwsxEltemXnjjTcfGkgvLYbztczPL/AZTDUxzffk5OQ5jESxMzIzQ0AkIyNzXu2xaWlpIRAjNfl6tJUwo1ediY9PdMXFxxdFLMjA/kssIKMENOLcjHzo16ooNuv+SzTVmOtBeLmqCy9K/sYQ/TDwN7X2bRp9EPLY/+m9bcvczOzsrCBf2VcLZs4xwIxu9WVqSl59CQvIsMCMWJUB9/cPxay1m6lWVFtq8rhA7BpaS01NTbDDtQGYaXXRwUzjvAGY8a9bg2KFmbKyMsthpqTk8GEjq/yWlJReDedreeDAAZeh6kxeHtPrKcaxWaPYMCsjPU5mptMlf0x6eroqxKxUZ3bPWAkzNIPA5Ot+MyCzY0e8dbuYy6PYRoAGPsrbSyxR7MD+S5RRbNh/iTaK7bt1SxNerl27HtIyMuPmmWtM+zYpgQwMCMPX5I93T10JzLLA81gR0RYHfplghrLFpF59mVKsvqjYtn48a1XGLvf19XN9E9CPavcIJ7u6hLa2tgDIgAFk2IHGQ/27e1xaTEZgBgZybYCZFNi4UVxhN9JbTKZbTTl5s/SzMtnRhqoyGcp7LMHO2PK5GD2Tx/lTU51RVsIMyyJ6rCbHt+4fpD0qUWxWoAHfvn0nZP+lcEex5dUYcd7FSNWF1n8/Qr8y8FdGVg8Dw4Cw4uBw/51A5QQM4AEAwmtuRjrwayXMTC0N7mpWX1TMdVE8HjAjrcrY5f7+fu5ApxXVhti1CDGil3a5bgqapu3U0toaYynMNNobxw4XzLzxxhuWw0xxaSlsFyAcPHhw2YVUUGN27yUeysvLWzSQaLpMPyuzFMdmjWJnZTkVWyp79mR0yediaLx79x63lTDDusUBrbmv7isXucH/m1mYgdaSNL3EGsX+4yPdXPdfErcjoJ134WkYBv6kwag2DAZrPT7x9PUg0Ii+yAA1rCCjBzO0ySMD8CJvL83Y+aYYiVUZq2BmCWhCo9qnTp0KqcaEwIzHEwIzukDj8VD/S6ypqcVhMMXkeNRhBtJFtsBMcalXrMqsAM2SxYqNEsxEwuuZl5c/z7y1QV4+9Q0W4tisu2JrLXjndDqjoNLCCjO7dqUuWg0ztIvosTg+Pt666t0QRRRbC2Ck0CD1sbGzbFFsz3VqmIFVd+E51Xzx4qVgOyZchgQS7c/zecm+TTAYrPXYT/bcE0bPX1gFNGK1Rq8FpVSdkQ/8moWZqalpltYRrf1jExMxkQIz4ajKWAkz0qi2UjVGbjnMaLSddKPYCDP0LSa7YQbgRQ40oqVtqOLi4ohY3yc/P3+GHWbyqP6msnOW4tisu2JnZmlvRZCevtvHCjO8YtraMOPgDjMwa8N9lV9Rt27f9rNCjNi+kQOM1P/lzXaGKPYg9Y1//dgdzeeFGzbc1KWtmHABDUtUG2LY31qOYuv5ZyM3FWGGpgUlhxmlgV9amBFbTNOrY9NWeSFSYCYcVRkrYWZ5fuZ9tWoMDcwoAo1HP4qNMEPfYrIbZpSqM0rVGgI070dGZYZ9vRlamHG5XItOp9PAJpHZmu03SCexgcyu5fma1F9bDTOxFgBNbKzDmvcwWoCBFpK45L8WTMDXPWdm6PdfOtInfHXoHeEbow+o3HxRG6KgIiPCTLANczE8QPP64AXhs103lH0y1J/rvRPYu4kGZqA6owUzoT/7RdWIttrALw3MEICZgurL6dOnrQaYsLSbIrEqYzXMtLe3R9OAjBbMyNpOzKVwhBntFlM4YIYGaMhj5h9lmBHj2Kwgk5mZRdViTUtLn9cZ+g18TE5OFpKSkoJOTTUX09aDGasGgePi4j3cf/l3l3fGVmsj0QCMHGaoKzMFJ4QnT90RvjhEvwGj49x91ee+vFyVAcNNXKlaYSfMfImhOvWpk/RtqeeHfdQwo9SC0gMZ6VAvDOySm1K5/Lo5c2bKCzADN/exsTFbgYbYEU6YCVdVxmqYAbW1tc3QwIyYaNIEGo8nH2GGD8yIIBMumNFqNz0OMONyZb+XlZXFvtt1VhbVPlp79u51KQHMzp07VwGM1LtS02ashBmaRfSMAw3nlX/lMzOBOZjl3aNpAUYJZmhmZp6sm1pJ9YzR71fUc+WmZlVGCWYCXv68HSCT3DFCX52qHKYGGa2ZGZZqzblz51et7wJwouSm5uYSNZiBygxUKuAmb2OVxm91skm9KjMaNpCxA2Ygqk1gxa8HMy0tJzRBhsCOofNEmIlMmKGpzkQEzOTnz/GGmezs/GjWqgwsepeWns70N0Dg5Xe7dqUGAEYNXuQmoONPTU2NshJmrKrObN8ey3+XbEgz0czBsPo7x7rVb+KFbSE36c8M3KeGmQ1TD1ZXZQhAiCAjWm+mxLI008wF4ZMHmulgpuCE8PFu+tmaTWM3TIEMwIsIBWrwwgIzYIAZ0TZWaebCATPhrMrYATOg1tZ2jx7MKCWaZG0mQ//qamxsiTEEM43N7kcVZqQtJjtgprS01KMEM3pAExmVGSNppjyvTlXmCm0UG9aLWVmpN4PpmkxLS/fQQkxIdWZXmsdKmLEqpm3J4nnkDfJFnhAjeuD8RdWb+FOtqzeSfHpkjhpoai7eCj4PrBsjBxktmLG6SrOhsZ+6KvPJujPUIPOZvncMQwy0j8T1XcS5D1qg0YMZABgp0NhVpTk9Pu6xE2bCXZWxC2aWgKZt0fAQcEuLqUWxDK4zM/OowowUZOyAmZKSww41mNFqNxWVlIS9OmZk0TwtmIGF+Pbt2/eQBmSki95B3Jr13GEhPCMwk7xzp+GYdlxc3D/TwMyOHXGWLaK3g3dce3LyzF1eECOdsdnWNrz6Jn5YeU2Zp/roqzN/NzmnWZWhAhoLqjQ90/TDz/LqlJ5hBWBWiIHYtZg0Ei3CDC3Q6MEMHFMKMzZWafxjY9bEtSOxKmPFCsBqam/vdBiEGaYotgrM+A2sALzwKMJMWRhgprT0SLQazGhVZ4qKir3hfC0LCgocxvZmOqB6M92/33VSO4q9V1Bb9G73nj0zxN60tPTLu9LSz6al74b/VnVqaprPCMyA09PTDQHBjh073o+N1YcZK6szxA+38mw3kTenr1gBM1OXrqxaBfhTXerDrl/0PqAGmn0z7wS2IVADGcW5GUXzq9J8w91JDTNPeS5Tg8zXB28zg8z09NkQiBEthw49oNGDGXmryeYqzYIdMENTlVmLezNpvie0tc0bWGvGNGwZ3JtJqGtu/uqjBjPi2jJ2wgxIC2bUgKaw8FBYgdLIGjPLG02qJoKyspy/M7IZJFRpxAFeo4DC4pSUXfPGYCZuHiAlNjaWAmj4z85s2rRZePnll4UtW7bwHRsYHh4ZtqLd5OqbWNmyQGfY9Yme+8LXTtPBzF9NvCcMXVCHGZrKDM8qTdXwGfqqzOFupqpM17mL1D8HpJHEigkNzOgBDQ3MjI2dVgUa7SrNpGd8fMJrqt10mn9c20hVZt0jpra2di9roqml5YTpf503NjXNsO2WfVyora0TaurqOx81mJGDjF0wU1xcPK8FM2rtpnBuaWBsK4NcjdV59zuUICY9fTdTfNouG4lpizAjAo021KjDTFx8osfhiPOxgMyrr74aABnR27a9zndsgNyUF60AmmcqTlIPu/4ZQ1R7+9RdbjBjtkrz2WIP/aaap25Tg4zeInlaLSVamNECGhqYmZiY1IQZxSrN5GQQQgjQzEVSXNvIrMzjBjOwlowVMEMgyaULMFCJqSMAU1MjvPXWWwGT/158lGCmrCycMKOcaNKrzhw6VOQLx+tYUHDAbWxeRn0rg8zMzHmtuRgpwIQDXlYPAqf6zMAMGGLYWkADX1sdsU4IDjqTry/QgMwrr7wSAjJg8jk/+X5+1e3e/v4S3q0mMar9qUb6jSS/PEof1T5+/hpnoGGv0mzxDNFHsavHuEexp6andSFGD2bUgIYGZsQ1Z/SAJlilmZgI+cODqDV57sVIiWsbmZV53GDmxAmPJTADMze0ACN3bX29+1GBGaUWk10wU1paGqMHM6rtpjBUZ7Jzcn6bnZ0tkI9CjsR6MFNQUKB4vcDu2EGI2bsyFwPwAv9tV/uIycnJD1lj2nKYkVZpaGLaBGRC/t7jk5OjYcsCNYjZsnXrKoiR+rVNm/i2Ks/NzHzAG2bA3xuhr0b8B4ao9gtn7nOYm1Ffk4V3FPsTDFHszIlrplpKrDCjBDS0MENz7KUKzdh7Stcd+f4YM9WZMY5xbSMJpscNZjwea2BmeW5mLjgLowMwoa7x19bWRtkLJJWH3ZWVKbxhRglk7IIZUFFR0aIezCi1mwptXkCPQIkH1oFRs8vlElwAOtmrQQfSSiqzMj5xLmZp/iU1bO0jWickJAiJSUkeHjAD1ltED9pKSseMj090rQaZ14XXXtukCTKit27dxm9soKOr60eWRLUvvy08SbmbdCCqPfwraqA5fO4G18oMS5Xm7+t66Vf6ZahOPd1/R7OlxAox4t5JusBBbuLwWFaY0RoElrSaFrQqKEszNKbmZ7j0XYeHhwMw4/V6EWbUYEZhCJgXzNTXNzTQA0yoa2pqbbuZVlRVuWEdmLKyMqGy8mgML5iB44UbZmhaTWrVmaKiYo89IFMQQ2DFrwUzaiZAc095VsYZlZ6e7oc9kCIdYKQOzLw4HIu8YEatQgPVGTWQCR43Pn5GCjJKbSUtv/66g981zjOqLfW2SfrqDES1aYeB/9fEr4SJ2UuWwIxWlaZ5/KztUexphpaS3OKKvfpeARoWmNEaBNYDmRWgGZ8zDjOnHw6NjkbzgBn5Hkz9/QNCX3+/0NvbR9wrnDp1KuCuri7h5MmTjx3MtFoIM7W1LVFv1dT4jcBMoN1UW+uzC2SWXEYgw+1nBRo1mFFrMdkJMzDMSwMzakBTXFxsaboPqiouV/ZvjYBMAGby8hRfx/Tde7qSktYOxIgWASQxMbmIF8woAU1cXPxv9Fbuha9v3x77m61btzKDjDg/s3Urp7g2j6i2Uqtp6urbwmf76aszLFHtzOlbKtWZi9yARtzjyFAUu/069c/97NAtxdV7jVRj1NaYoQUaFpjRajUR0KC60S3Pz/gNtZrGxoTh4RHTfVexItPVdSoAKjR+HGFGnmjiBTOgurp6r1GYsRpoKioqPCsgs2SoprACjRrMqIGMnTCzVJ0p8dHAjHK6qdBvFdAAyGRnZ/+bUZBxuVwfqB179+7dv1veKmDNgExi4grMxMXFzfOEGflgcGJyCtWaNrGxcTGvvPKqnxVkRG/avPnX3C6YgcHBFt4wE4hqn6XfVPH3e9n2bRqYvcx9bkbJ0HY6NDBBDTKfKB8wHMWWrt5r1mwwswQ05IZVRgszWoPAtDCzXJ1xGIEZeG6oqgyPjJi6qfb19QlgsfICHxFm9BNNPGHGbHVGbDnxnKFxu91RBEDm5CCzUp0pZwIaJZiRb18QTpgxW50h9hP/gjfI5OblLcDcC8zB0ALMvn37BdiWALYcgNi1SovJlZ6eHhjyTUxMDHgtQA2s0CuFj507d8bwhBkRaABmkpJSqK+/7dtj3UZh5pe//KWwbdt2fgP9ZqLaWrttP+O9S31jZ4lqv3zmnqWtJtGjZ88Ln2GKYt8xtP8STdSa5/Cvko8fP17CAjNqczksMLMENOzrz8DzBGAm0CYac5iFmZ6engDMBK0BNY8jzMgTTTxhhkd1Ztn+2to6j1mIqaio9JaVlfmVQUZanaEHGiWY0Wox2Q0zLLMzcqA5cOBAYMgWoKOg4CCXGRpyHEdObq4/R5ZaUoOXzMys5bVh0oMmQKNaudi7N2MeHgPAI8IMONIrNQAaUvCIT0jw8YaZlTZWYgbL72zr1m0+VpCBNWgAZsh/+8nPxicd19XVnWzF7Izn4g2mSgXLvk1KUW3eMLOpZYAeZBj3X4IoNrSUeEKMnTCjNgjMCjPLFZp5FpgRQWbZiwMG49oizIBDYEYDah41mGltbTurBzPyRBNvmAHV1Nb+hgPQBNahqampa2Op1Bw9ejSmqrp6hoCMJsSsrs7QAY0SzGiBTDhgpqSkJIom2STCTEFBgSCHDXBeXt6H+fn5GUbOAVbpzc3Nu5cDcCQ6Z8UQy3Y6nYrwIjWBFL8zOztauSqTHS19LMSvpUCzBDXJamu8zNN5l6pT5E5ZMkUkWxE6aGLaRmAmISGJ6fqD+ZlNmzYtMM7MBGAG/Nprr/GLa587Zz6qreT1Y/TVin/fTx/VXj/5wNLqTNfEtGVR7Izxa9xaSuGEGfnmk0ZhhnV+RgYzMD8zZwnMBL0CNd3dPZ7u7m6Hlru03EXjrhBbeRPztLV5T5w4EQAW2kSTFTBD4CPZaLJJ7urqaqGiokKoqqpaqK4+OlN19Kj36NFjrmPHahzgqqqj3iVXzVdUVvrhsUuuFOhgRlqdEYGmMoYWZvRaTGDymDnyHGOlhw9PEntLS+ldXFq62sWhBnhRaDfFaM/MHApCzL59+zTtcmV/mFdQ4NbaRkBsJxG7CKz49I4J7aO0tPRAlFoNZMAEeFTbFhmZmT754+Uwo9R62rNnr8vKv0PYt0kvkq0IHYlJ3kiAGSPzMyLIiN6ybRuf9xUzw8BarSYYBmaJav9nE1FtnnMzz9d0U1dlPn3iAtP+S4G20iMAM0rPZQRmQASMMmEWhiLJpAAz4FG3GZjplreaVHzyZBf1sDAvk+f1WA0zotWgxmqYCbSb6us7zQLNsWPHhBU4YTU9zIRWZ8oFd0XFPC3M6IGM6MOHDwu0rR9WA9CozM+4lQBGbCWJ7R498AgFG9didnbOPABLbm6eNyc3bwb+nwDPAu0xAGTE1hAsbKcGNJmZWaqtF4hjQ9VG/j1Lw7WJqibP91urK2OwmzaBJ79WJFs5haQf07YLZljmZ8QWk9ybN2/N4PKCkhvUXd4wwxrV/gTDvk3RE++FRLV5wYx7cNyy/ZfKJi8Fb8xWgAzVGjOcYEap1WQUZkCjo6e9y8fQSTIpwcywf2iILa4thRmIYtPATDighjyf1y6YUYMaaaLJKpgB1dfX3zYKNMeIjYMMK8yEVmfc7soZnjBjJchowQyoqKjophxgpGYBGR4WQUa0uL0ADPBKoWbPnj2arYpMp7NbCYBSU9M0YYY8xpb1dHalpvr0ItlKTkpKdkcKzNDOz0hbTKJfeukl8OLWrVv5DPNfs6DVBGaKajMMA8uj2jxg5uvlHdQw80cdb1P/XM8P+4LAsRZg5vT4+HnpwnpKlq9pYwZmQCOjo/Nam1YGk0wyDy3FrH9jFGb0W03hg5pwwIwcaqQw09jYOGblm3ptbd37RoDGHMiww4xYnSEg46OdmaFpMVkNMnowszyE61MCGQCccIKMtDojbj0AQAMg43Tma94EyWMWlVtTu1WrM+Tzfqjo2AEzqXv2RBuBmR06MW02mNkuwLoxDocjxejPAfMzr7322iJtiwn+/8UXXxR+/vOfB0z+n88q7729vSVWwMyx2ZtMFQwzUW0zIJPZNUK//5LO7uDy/ZdaJ86G3JitgBmlORbDMHN6PFAp0QManjAD8zPkOH7J8VSTTGCvdziwVowIJAMDg16jMNPd3W0IaFbA5tGDGdEQz66vrw9sOVBff9xrLcy0RBGgWaipqaUGmcrKSg4wU8EIM0cIyLjvsaSZIgFklmCmZJIiVeQLJ8wogYxo6UaQaWnpv9EDGZij0ZqzgeMowUxqapqtm2qmpqbO6UWylawV06aCme3bhS1btgRBw+GIMzWrB/MzNC0mOciI3rx5C5+4tpGotl6riTWqbXTfJjOtJohiswz9suyK/erIdcVKA2+YYV9jRh9m9IBGClBmYWap3TSaFrKqsKRKowYxUg8MDDmMwAys+GsGZqyCmo6OjkvhgJmWlhOBigzsnQSzKDBYCyZAM2nHG3tdXb2PBmjEgV+7YYaADNWNjhZm7ACZwkNLMzAHDhZSVdeUgMYOkNFKK4GhGgMAsnv37nmaysnejKU4trp3K8IMOQ9bN9RMT9/j0ItkKzk+Xj2mrQkz5NibNm1a1fIxCzMgcnyPXotJDjGiX9y40U/gyvxrT948f2QFzMC+TVZHtc3ADEsU+5OMUWy1GZBIGP6lgRktoJE+Lw+YWQKasRnZNgnB4d+BgUFFiBHd39+/SEAnihVmjLaarIYaWAvGDpgBeGki8NLY2BjcxRqqMQAy4mAtVEDeqqkZs+vNHdag0QIaniDDAjMVFVXU/3IUYUZrbRmrQUY+A3Pg4EHqa+rgwcI6o8O/VoCM2GrauzeDarNCp9MVo3c8MKSXQgZ/d+2ydTNNUTt37lwUQSZZJZKtZPLYaBaYUYIYnjAD2rx586/ECoy0xQTzMWogI/oXv3iZT1x7enr6n3jDDPjn4wz7NvXeo4YZ2LfJTJsJotgs+y+xRLFzRmc1EzprBWa0gIY3zATmZ0ZGF8TjDhMTSAm0gmCRO7Am0AwMzBmBGbOtJt5Q09bWZinMNDe3TErhRera2togyFRVVQVv+AQivHa+udfVNThqamv9fJNLxmCGQMmCVgxbC2bsBBlIIeXn5ysO8LLCDKiwsDCGwNDvIgRk/E7nfuqoNCScaGBGHtO2Oo6tprS0NLdeJJslph0KM9tVk0RWwAwM85LjLQK8LIHMy8LGjRsDsAIfl4d+A95I/CL5HLSdRJPvGTZ9Ejz2beIR1f4zL31UO/+szzDMPFvdRb//kucy9fn/j4FbunHjtQQzakAjbj7JE2ZGR0ejh4dHHooQAxa3HhAtwg20iORgMjg46GaFGV6tJl5QAxUTK2GmpaXFqwQyIiyIls6k2A0zS3M0tTBHc4vvwG+oIZ2kCTIVlV5YJZj13AFm1HbI5gkyegBjBmZA+fklUXl5ed5wgkxmVpZPbz5GNisTRQsy0ph2cvLOxXVhEiyEJ8a01SLZKlsR+BXnVxyOD2Fna6W1XayGGdC2bbExAC7gDRs2CC/87GfCT37yE2oT+DJ/LmPj45NWVGdSpm5Rw8ATPffYo9qMrSYro9iVw2coFoJbWzADLZ/VraZJ7jADGhgYcokgI1oLGGRw4+8bGopmgRnerSYzUNPe3m47zDQ0NIRATKTAzEqVpjH6rbdq3ucNMlowA7MxFRVHDffvyff/s1KLiQfIsACMWZhZgZpCWKnXZyfIZGRkzu/fv5/5prY3I2NYb5G90Jh2qq1xbHWgSZvRSzHRxrQ3b94yTwsxVsAMaMuWLR6ovvz0pz8NAAp8FP9bzz/72QY+ce2rV68+5A0z4C8N3LUkqr1z+g7z3MzTb7RRw8ynTtJvoPm/B64LQ0NDqjFjK6ozdsCMGtAsz7Vwv9H19ffPiCDTQ7m4nbhxJHn8AivMyKs/4YIacZbFLpipq6tTBJlIghlR1dXVP3S7Kx6Ul7sfLsWj3SHmATNmIUYUOccPeIIMDPEaARheMBMCNXl5MwQy/FaADLSTMrOcPpfLFWMCCha1FtlTmsWxM46tft5LMW1WmHE4dixEIsyAfvnLl99bDSp0VZqNG18yH9dmiWrTwgwBJKFi+qqlUe3wR7HfEXrGJgIw4/V6bYEZo2vMkPN7WFVV9RUFmPFofZ8caJZX6LXkXzTkOlygqcwomQBKtArM+JVgpsfCVhMt1HR0dARhprW93WM1zEDkWg1k5DBTW1vrWRdBqqo66gLwIDCyCBUQ0UsL2y0vVkcAR4QeLZiB3bLJ34LbSDtJTUfKy/+vWZDhATBSHyws6ub5O8jPP+DKyc0F8Fg0AzJ79uxdzCIA43Tudzvz8039DgiQREsj3PJF9tSTUukPIuG6jo9P+DULyEDqafPmzf7VVZGtc5EAM1Bd2bBhw6ISrLzwwguaMEO+7udyErt27RqFPyQ9iyVPPcNGZTBZ/18bJ6jh4NOnblHDTPybR4WCAweE7OXt45WdHfDf5ByhjmJ/9CT9PlPfKz8ROH5WVlbA8HM7yR+vmuENxuncp2BniA8WFl5qbm4uUXFZU1NTCfi43MfVrQQyogigOHScSUDGASZAlWzVHzakk4gd4P7+/pQ+8jHEfcru6e+PUa/MDEWLx5S6d2AgubuvzxFwN427qa2yV1OmfG+mtraOlPb2TgfYyjdMAjNR5BrIbGhocii7wVFXdzylpq7OIXpdBKvi6NHo6urqtIrKSm9FReXV8nL3vNxl5eUfEsj5FwIu75Nrf7K6+pgbNpu06pwAjMorKhzl5RWOsjJ3yuEjRxwBH9Z3cXFpZlFRiUPbRbo+KDP5uZ+y6ueF/Zby8gocuXl5XjBsXSA3gZ4PMrOyPti3b/9k1r595DG5adkqm0OaUYbTGZOZ6XSIJu/FyQSUHEt2KjpSrmWYnUlKSXEkJek7LiEhMy4uzkEcsxqK4qMATlhs1c8EQPPqq5sdSv7lK6+khH7u1aBfe+01Pn+f69ev/8Lzzz8v8PZ3XtjIVJ35TwPv6ILMX7SeZTqH7/7DD4WP7a/VhZmPMlRlnmi6IFjxehHfJb+Lp9ahUCgUCoVi1w9+8IO9Vtygn856k37fpvYb+hHtrQns57AtTTeKzQJd394UbxXMrMcrEYVCoVAo49WZp6AywPsG/d0f/WOgkkELCp/rVm83/dURj+HzeCKrShVmfq/hPH07rHLQKpDx4lWIQqFQKJRJkRvqRitu1F9L3EcNCx/tvK0Y1X5m6K7w3IaXDJ/DMxu3cIliQ+vMitfoueee+xpegSgUCoVC8QEarxU3a6ho0ALDH7dfWwUzz+aWmz+H1OJVMPMxD33qClpmFlVlqvHKQ6FQKBSKk77//e8/a8UNG+ZMWCogXx5diWp/89RV4Xs/jjE/kPzjn4aAzEfcXurz+Vj7jUDLjPfrQl7v93HoF4VCoVAo/tWZaiuA5vOFTdTw8IetV4Mw87fxu7mdw5/FZgaj2B/poF8gD1plVrwmMHiNVxwKhUKhUJwFUW2oGFgR1YYKBy1A/Mf+d4RvNYzwHUhejmp//Ohp6vP4g5oJy6LYeLWhUCgUCmWRrIpqPxObFpifofFnak4L3315C/dz+MrmZOEPjo5Rn8dfv7TZEpiBlh5eaSgUCoVCWSgrotpojGKjUCgUCmUnzKxH6LDG0MrDKwyFQqFQKHuAxovwwb29VIhXFgqFQqFQNgkWc0MAwSg2CoVCoVBrvTpTjSDCzQ68olAoFAqFsllQSbAiqv0YehavJhQKhUKhwledcSCMYBQbhUKhUKi1DjQY1TbuVryCUCgUCoUKs6zatwmj2CgUCoVCoeyszmBUG/dfQqFQKBRq7QoqDAgoGMVGoVAoFGpNCxZ9Q1Ch9ka8YlAoFAqFirzqDEa1cf8lFAqFQqHWtqDigLCCUWwUCoVCodY60MwitKi6Gq8QFAqFQqEiXBjV1hz6/QJeISgUCoVCrY3qTCsCDEaxUSgUCoVas8Ko9irfxasChUKhUKi1V53ZiOmmJZDBoV8UCoVCodj0/wHZZ+Lk8xhZegAAAABJRU5ErkJggg==;" vertex="1" parent="9Bd9de8_5ob_pkCl6xLQ-22">
          <mxGeometry x="17.930000000000007" y="140" width="194.14" height="40" as="geometry" />
        </mxCell>
        <mxCell id="9Bd9de8_5ob_pkCl6xLQ-25" value="" style="group" vertex="1" connectable="0" parent="9Bd9de8_5ob_pkCl6xLQ-38">
          <mxGeometry x="687" y="341" width="160" height="200" as="geometry" />
        </mxCell>
        <mxCell id="9Bd9de8_5ob_pkCl6xLQ-20" value="" style="rounded=1;whiteSpace=wrap;html=1;" vertex="1" parent="9Bd9de8_5ob_pkCl6xLQ-25">
          <mxGeometry width="160" height="200" as="geometry" />
        </mxCell>
        <mxCell id="9Bd9de8_5ob_pkCl6xLQ-24" value="" style="shape=image;verticalLabelPosition=bottom;labelBackgroundColor=default;verticalAlign=top;aspect=fixed;imageAspect=0;image=data:image/jpeg,/9j/4AAQSkZJRgABAQAAAQABAAD/7QBiUGhvdG9zaG9wIDMuMAA4QklNBAQAAAAAAEUcAVoAAxslRxwCAAACAAAcAnQAMcKpIGF6YWkxMyAtIGh0dHA6Ly93d3cucmVkYnViYmxlLmNvbS9wZW9wbGUvYXphaTEA/9sAQwADAgIDAgIDAwMDBAMDBAUIBQUEBAUKBwcGCAwKDAwLCgsLDQ4SEA0OEQ4LCxAWEBETFBUVFQwPFxgWFBgSFBUU/9sAQwEDBAQFBAUJBQUJFA0LDRQUFBQUFBQUFBQUFBQUFBQUFBQUFBQUFBQUFBQUFBQUFBQUFBQUFBQUFBQUFBQUFBQU/8IAEQgD6ALuAwEiAAIRAQMRAf/EABwAAQEAAgMBAQAAAAAAAAAAAAAHBggBBAUCA//EABsBAQACAwEBAAAAAAAAAAAAAAAFBgIDBAEH/9oADAMBAAIQAxAAAAHaAAAAAAAAAAAAAAAAAAAAAAAAAAAAAAAAAAAAAAAAAAAAAAAAAAAAAAAAAAAAAAAAAAAAAAAAAAAAAAAAAAAAAAAAAAAAAAAAAAAAAAAAAAAAAAAAAAAAAAAAAAAAAAAAAAAAAAAAAAAAAAAAAAAAAAAAAAAAAAAAAAAAAAAAAAAAAAAAAAAAAAAAAAAAAAAAAAAAAAAAAAAAAAAAAAAAAAAAAAAAAAAAAAAAAAAAAAAAAAAAAAAAAAAAAAAAAAAAAAAAAAAAAAAAAAAAAAAAAAAAAAAAAAAAAAAAAAAAAAAAAAAAAAAAAAAAAAAAAAAAAAAAAAAAABEm3y2okLaiQtqJC2okLaiQtqJC2okLaiQtqJC2okLaiQtqJC2okLaiQtqJC2okLaiQtqJC2okLaiQtqJC2okLaiQtqJC2okLaiQtqJC2okLaiQtqJC2okLaiQtqJC2okLaiQtqJC2okLaiQtqJC2okLaiQtqJC2okLaiQtqJC2okNShMYgAAAAAAAAAAAAAAAAAAAAAAAAAAAAAAAAAAAAAAAAAAAAAAAAAAAAAAAAAAAAAAAAAAAAAAAAAAAAAAAAAAAAAAAAAAAAAAAAAAAAAAAAAAAAAAAAAAAAAAAAAAAAAAAAAAAAAAAAAAAAAAAAAAAAAAAAAAAAAAAAAAAAAAAAAAAAAAAAAAAAAAAAAAAAAAAAAAAAAAAAAAAAAAAAAAAAAAAAAAAAAAAAAAAAAAAAAAAAAAAAAAAAAAAAAAAAAAAAAAAAAAAAAAAAAAAAAAAAAAAAAAAAAAAAAAAAAAAAAAAAAAAAAAAAAAAAAAAAAAAAAAAAAAAAAAAAAAAAAAAAAAAAAAAAAAAAAAAAAAAAAAAAAAAAAAAAAAAAAAAAAAAAAAAAAAAAAAAAAAAAAAAAAAAAAAAAAAAAAAAAAAAAAAAAAAAAAAAAAAAAAAAAAO82I6IvFvqiJSmztRBO1EE7UQTziiCdqIJ3P89icdZw5J8AAAAAAAAAAAAAAAAAAAAAAAAAAAAAAAAAAAAB3mxHRFPdJmhBlqAAAAThE420BHW8AAAAAAAAAAAAAAAAAAAAAAAAAAAAAAAAAAAAB3udiOiK490maEGWoAAABOETjbQEdbwAAAAAAAAAAAAAAAAAAAAAAAAAAAAAAAAAAAAHfbEdEU9wmaEGWoAAABOETjrSEbbgAAAAAAAAAAAAAAAAAAAAAAAAAAAAAAAAAAAAHfbEdEU9wmaEGWoAAABOOIpG2kI63AAAAAAAAAAAAAAAAAAAAAAAAAAAAAAAAAAAAAO+2I6Ip7hM0IMtQAAACbopG2kI63AAAAAAAAAAAAAAAAAAAAAAAAAAAAAAAAAAAAAO+2I6Ip7hM0IMtQAAACbopHWkI23AAAAAAAAAAAAAAAAAAAAAAAAAAAAAAAAAAAAAO+2I6Ip7hM0IMtQAAACbIrHWkI23AAAAAAAAAAAAAAAAAAAAAAAAAAAAAAAAAAAAAO+2I6Ip7hM0IMtQAAACbIrHWkI23AAAAAAAAAAAAAAAAAAAAAAAAAAAAAAAAAAAAAO+2I6Ip7hM0EMtYAAACbcRaOtIRtuAORw5HDkcORw5HDkcOeAAAAAAAAAAAAAAAAAAAAAAAAAAAAAB32xHRFPcJmhBlqAAAATVFo60hG24B6nGxPREYHxVEjVJWqj1K1UErVQStVBK1UErw2mwfgsfyOSfAAAAAAAAAAAAAAAAAAAAAAAAAAAAzC/6oZn11/YB+f6S9JD3wAABNUWjrSEbbgHptieiIeuTNDDLWAAAAwZB4+yvkjLkAAAAAAAAAAAAAAAAAAAAAAAAAAAAABmd81RzLrr2wD8/0l6UHvgCaotG2kI63APU/PYXqhf39cl6MGWsAAABgyDx9mfJGXEAAAAAAAAAAAAAAAAAAAAAAAAAAAAAAADM75qjmXXX9gH5/pL0lNUWj7QEbbgHoLX3156nxxZvlOQ/vjfu8cp+409gAADBUIj7K+SMuQAAAAAAAAAAAAAAAAAAAAAAAAAAAAAAAADngZnmUabo0NMkA9Ba++vPQLP8oDLU+/h57kP7417vFM9gaOwBg3EIj7K+SMuQAAAAAAAAAAAAAAAAAAAAAAAAAAAAAAAAAAAAD0Fq769z6PCz/KAy1AAPv4Pcg7GNe7wzPYwVCIi5PkjLiAAAAAAAAAAAAAAAAAAAAAAAAAAAAAAAAAAAAABmdZ1zzaXpNVFh+cAAAAPF+ME5p3F+pl+NV36X1RxSoAAAAAAAAAAAAAAAAAAAAAAAAAAAAAAAAAAAAAAGbVbXTNZik1UWD5wABzj/AMYFxz/7DTYXx9nuL9XL8ahrR1RxSgAAAAAAAAAAAAAAAAAAAAAAAAAAAAAAAAAAAAAAGa1bXTNJelVdysPzfjGfmax1l7Xc6/a0WDkb9QD8/wBHnuL9XL8ahrR1RxSgAAAAAAAAAAAAAAAAAAAAAAAAAAAAAAAAAAAAAAGZ5hHPSkqx3O/+qQjg26gAAHx9vPcX6uX4zDWjrDilAAAAAAAAAAAAAAAAAAAAAAAAAAAAAAAAAAAAAAAPT9/DfTkYX3xLVwAAAB8fbz3F+rl+Mw1o6w4pQAAAAAAAAAAAAAAAAAAAAAAAAAAAAAAAAAAAAAAD0/fw305GF98S1cAAAAfH289xbrZfjULaOqOOUAAAAAAAAAAAAAAAAAAAAAAAAAAAAAAAAPQ/HLX1RjsAAAAA/b667LDsOu987DrjsOuOw647DrvHY+fxPQxzAAAAAAAAAAAAAAAAAAAAAAAAAAAAZRi9M64b4ZFhUnVfSea1dfqzjM8L45qyYpleKSVXwMQH0YAAcnCreF2wGDDinykcdsBOBxT4AAAAAAAAAAAAAAAAAAAAAAAAAAAAAAAAACmTOmd1e7cpq0oy1BH2ZzxyWbFMrxWf+c4FleKXaPscZ8/K8U5ZZlmJ3rrh4p6n7dnXvz7yfd8+c+fzr8vT/GEv2ecdpOUKcYvnODV/6S9v1Kh1RGAef6WT74yMfNekMdavc+c0y7urku/HPsKw34iIu4AAAAAAAAAAAAAAAAAAAAAAAAAAAAKZM6Z3V7MPF4ncnU6LzOXNK+liPd6UZa7NiuVYrNUbArtCbtzSM0xTK8U4bEvUFvUjW5di2U4tG2Ww49kOPS9Jn4gfpFR454nvnEvOxBfRbvLbF5Vo+Rwb9rgjLT6+v2wMM6I/M+/0OxlhKRX/AKQAAAAAAAAAAAAAAAAAAAAAAAAAAAAApkzpndXu3KatKMtQR9mc8clmxXKsUn/nOB3WFWPllsIxOkTbll+b1GrlIVqQ4tlOLRdssOPe/wCNL0mcuOYH6RUeOP3n/m8p+/z5gPo+x8JqPhWH5pOXX5gPo/7fl73g5a6b2Ov2JygykV/6OAAAAAAAAAAAAAAAAAAAAAAAAAAAAApM2438FUlnHPuIc8i54FjxbA+e6vc+74Tkm9gedff0labYO3EPnV2ZVi5H2TMa1rp9d9eqMt4ckxkll1256Yuwx3njRIejXohxno2C/TX747IOsSYj7LSuxLG7h5HDYQAAAAAAAAAAAAAAAAAAAAAAAAAAAAAAAAAAAAAAAAAAAAAAAAAAAAAAAAAAAAAAAAAAAAAAAAAAAAAAAAAAAAAAAAAAAAAAAAAAAAAAAAAAAAAAAAAAAAAAAAAAAAAAAAAAAAAAAAAAAAAAAAAAAAAAAAAAAAAAAAAAAAAAAAAAAAAAAAAAAAAAAAAAAAAAAAAAAAAAAAAAAAAAAAAAAAAAAAAAAAAAAAAAAAAAAAAAAAAAAAAAAAAAAAAAAAAAAAAAAAAAAAAAAAAAAAAAAAAAAAAAAAAAAAAAAAAAAAAAAAAAAAAAAAAAAAAAAAAAAAAAAAAAAAAAAAAAAAAAAAAAAAAAAAAAAAAAAAAAAAAAAAAAAAAAAAAAAAAAAAAAAAAAAAAAAAAAAAAAAAAAAAAAAAAAAAAAAAAAAAAAAAAAAAAAAAAAAAADbVze6lNtRqU21GpTbUalNtRqU21GpTbUalNtRqU21GpTbUalNtRqU21GpTbUalNtRqU21GpTbUalNtRqU21GpTbUalNtRqU21GpTbUalNtRqU21GpTbUalNtRqU21GpTbUalNtRqU21GpTbUalNtRqU21GpTbUalNtRqU21GpTbUalNtRqU21GpTbUalNtRqU21GpTbUalNtRqU21GpTbUalNtRbRF5AAAAAAAAAAAAAAAAAAAAAAAAAAAAAAAAAAAAAAAAAAAAAAAAAAAAAAAAAAAAAAAAAAAAAAAAAAAAAAAAAAAAAAAAAAAAAAAAAAAAAAAAAAAAAAAAAAAAAAAAAAAAAAAAAAAAAAAAAAAAAAAAAAAAAAAAAAAAAAAAAAAAAAAAAAAAAAAAAAAAAAAAAAAAAAAAAAAAAAAAAAAAAAAAAAAAAAAAAAAAAAAAAAAAAAAAAAAAAAAAAAAAAAAAAAAAAAAAAAAAAAAAAAAAAAAAAAAAAAAAAAAAAAAAAAAAAAAAAAAAAAAAAAAAAAAAAAAAAAAAAAAAAAAAAAAAAAAAAAAAAAAAAAAAAAAAAAAAAAAAAAAAAAAAAAAAAAAf/xAAwEAABAwQAAwcEAgMBAQAAAAAFAAMEAQIGFxQwYBARExYgNDUVMTNQEiEiQaAkMv/aAAgBAQABBQL/AJgtth1tsOtth1tsOtth1tsOtth1tsOtth1tsOtth1tsOtth1tsOtth1tsOtth1tsOtth1tsOtth1tsOtth1tsOtth1tsOtth1tsOtth1tsOtth1tsOtth1tsOtth1tsOtth1tsOtth1tsOtth1tsOtth1tsOtth1tsOtth1tsOtth1tsOtth1tsOtth1tsOtth1tsOtth1tsOtth1tsOtth1tsOtth1tsOtth1tsOtth1tsOtth1tsOtth1tsOtth1tsOtth1tsOtth1tsOtth1tsOtth1tsOtth1tsOtth1tsOtth1tsOtth1tsOtth1tsOtth1tsP/wBZ0GC8Rk2YLCpZ5FgLyLAXkWAvIsBeRYC8iwF5FgLyNAXkaAvIsBeRoC8iwFkEAcMd6OgwniMoOHZCxuZk+TcD0fBhPEZQcOyFi8zJsn4Ho+FBfIyQ4dkLF5mT5NwPR8GE8RlBw7AWLzMnyfgej4MF4lKDh2QsXmZNk/A9HwYL5KUHDshYvMyfJ+C6PgwXiUoOHYDReZk2T8F0fBgvEpQcOwFi8zJ8n4Lo+DBfJSQ4dkNF5mT5PwXR8GC8SlBw7AWLzMmyfguj4MF8lKDh2QsXmZPk/BdHwYL5KUHDsBYvMyfJ+C6PgwXiUoOHZCxeZk2T8F0fBgvkpQcOyFi8zJ8n4Po+DBfJSg4dgLF5mT5PwfR8GC8SlBw7AaLzMnyfg+j4MF8lKDh2QsXmZPk/Br7dHQYL5KSHDsBYvMyfJ+DX26OgwXyUoOHYCxeZk+T8H0fBgvkpQcOwFi8zJ8n4NU/r0jRr5WV5BaXkFteQW15BbXkFteQW15BbXkFteQW15BbXkFteQW15BbR4PFDX/uoMF8lKDh2AsXmZPk/Br7ekcOfKyhYtgRF5mSZJQTSta3XfusbPfRZDbljzfLyfJ+DX29I0c+UlChbAiLzMkySgm2ta3XfvMdyK8O425Y83ycnyfg19vSOHPlZQsWwIi8zJMkoJtrWt1377HciuDuNuWPN+vJ8n4Nfb0jRr5WWKFsCIvMyTJKCba1rdd0BjuRXh3G3LHm/Tk+T8Gqf16YMF0jIDQY46HzMkySgm2ta3XdBY7kV4dxtyx5vtyfJ+DVKd3pgwXSMiBAaGx7L62XNO0dpyskySgmla1uu6Ex3Irg7jbljzayfJ+DX29MGC6RkQIDQ2P2WX1sqy7R23kZJklBNta1uu6Gx3Irw7mR5Xay39vTBgukZECA0Oj+iy6tlzLtHbfVkmSUE21rW67o2DBdISIEBodH9Vt9bKsvUdt9GSZJQTbWtbq9GwYLpGRAgNDo/IsurZVl6jtvZkmSUE21rW67o2DBdIyIEBodH5Vt1bLmXqO0yTJKCba1rdd0djxmyBXmTynBKSze250gBPcHyyRGkWla1rW+yjlr7FWbukAJ7g+STJ0iLvrXtuspfa+xVi7pACe4P1lCtIat/uvovso5a+xVi7pACd4L0ly/BUt77q2+q+yjlr7FWLukAR3gu0yZpBpb33VspyL7KOWvsVZu6QBHuBRcvwtLYt1a2t228q+yjlr7FWbukIsrwubfZRy15irF3SEWV4fNvso5a+xVi7pCLK8Pm32UctfYqzd0hFleHzb7KOWvsVZu6QiyvD5t9lHLX2LmLukKPX208dxeO4vHcXjuLx3F47i8dxeO4vHcXjuLx3F47iudvup0E0OlvtvxnotelQwWhZvydavJ9q8n2ryfarcOtrdfb/AAcxz4bMPd9K4d+A4QcGRPNstebZa82y1TLplK3Xfzvxz4bMPd8jHIjDwnK2GmHuzFYzL8TKozMeL0Ph/wCDLfjfTjnw2Ye7UfGpclidCcHyexjGZj7M2G5AkwQMkhGCwnB48+IfKOzwUkdHHBpBNsCNdGMHxrpNiVjkuHG7IAeURpTD3e6Ri01mlaVtuQ4O+UsIiXxdIONS5jZYJcKb/d4f+DLfjfTjnw2Ye7Qj4nKPmewb8bk/zIrIaDYQyd9ShlzX0m8rkFCcQOboKZEFPqrJcp9Kan5LSdCWPhqEHJctmBGvzC7+Qo4wUrkQqk2MsP8AbSYLcx2Rk8Blw+WZKfvMP/BNgMkG/LI5eWRy8sjlkQ2OOuWOfDZh7tCPico+Z7BvxuT/ADKxf4bMPz9mIezy/wBp2QotIMPJplZBJMv3RXqVp/Kaxws3D/bZQ/e0M/e4f+DJJb0OD9dIr66RX10ipU6RN7Mc+GzD3aEfE5R8z2Dfjcn+ZWL/AA2Yfn7MQ9nl/tFHp3yLv/q8PEdv+hwl9DhL+FyOf0Zw/wBtlvx/73D/AMGW/G+nHPhsw92g9e8RlHzHYN+Oyf5lYv8ADZh+fsxD2eX+0Vl/huXV/wAydXWCXjOLxnV4zirXvrh/tst+P/e4d+DLfjfTjnw2Ye7WMv8AjCMrg33rvp3DhjxR1tu1lvJvmVi1e8PmDVV39mH1/wDLlrV14/vp2AJ3HDslEXv1pXvX+3AktmAsP9tlvx/73Eb7bGMrcsuH+nHnLLQ+W3W3S0IK3CpMSYzNsqOYrcTPsD7A8qjovJa0uMLHS1kByltHm8ojMtDUCJ0GS2rrZDZ+Iw2IUCe6OkQDkSfR0ZHkVsjMw6E8kjMt0WI322R8rcsugfva0pVUtpT1fxpVUp3dv+6uX3U+y/jSq+3bbWti+9ey2tbFX/KvZWnerb77Vd/n21tpVUtpT/sb1IHWpA61IHWpA61IHWpA61IHWpA61IHWpA61IHWpA61IHWpA61IHWpA61IHWpA61IHWpA61IHWpA61IHWpA61IHWpA61IHWpA61IHWpA61IHWpA61IHWpA61IHWpA61IHWpA61IHWpA61IHWpA61IHWpA61IHWpA61IHWpA61IHWpA61IHWpA61IHWpA61IHWpA61IHWpA61IHWpA61IHWpA61IHWpA61IHWpA61IHWpA61IHWpA61IHWpA61IHWpA61IHWpA61IHWpA61IHWpA61IHWpA61IHWpA61IHWpA61IHWpA61IHWpA61IHWpA61IHWpA/wDzB//EAEMRAAAEAwIKBwUGBAcAAAAAAAABAgMEBRESIRATICMxQVBRcbEGFBUyNVKBIjRAwfBicpGh0eEWQoDCM0ZUYYKQov/aAAgBAwEBPwH/ALN46OTCJ+0O0YrzjtCK85jtCK85jtCK85jtCK85jtCK85iXIil519Z03bHjo5MIn7QccU6o1rO/KlsttUeeLgWx46OTCJ+0HHFOqNazvypbLbVHniu1FseOjkwiafzBxxTqjWs78qWy21nniu1FseOjkwiaF3g44p1RrWdTypbLbWeeLgWx46OTCJ+0HHFOqNazvypbLbVHni4FseOjkwiafzBxxTqjWs78qWy21R94uBbHjo5MImhd4OOKdUa1nflS2W2s88XAtjx0cmETd3g44p1RrWd+VLZbao88V2otjx0cmETQu8HHFOqNazvypbLbWee9C2PHRyYRNC7wccU6o1rO/KlsttZ54uBYY+PTCJsp7w7Ui/PyHakX5+Q7Ui/PyHakX5+Q7Ui/PyHakX5+Ql3W3s68r2fjplLsfnW+9zFKXHky2W2qPPFwLDHx6YRNku8FrU4o1KO/Klstxmee0bAmMtxxY1rvcwZUuPDLZbazz3oWGPmTcJmyP2zC1qcUa1acqWy3GZ54rthTGW4/Otd7mKUuMS2W2s88XAsM2myIBFlN6z+qmHHVuLNxZ3mGH8ZcenJlstxlHntG7fsRyXsOPE8or8M2myJeiym9Z/V4cdW8s1uHUzwEdLww/jLj04ZbLcZnntGotjzabIgEWE3rP6vDjq3lm4s6meQR0DD+MuPSJbLcZnniu2RO5Mb9YqH72st+VAwVqjrgg4snSsK07JnUlx1YmGL2tZb/AN8iBgLWdd0asBGZHUhBxhPFZXp2TOpLjqxEMXtay3/vgl0tt597RqILPCRmR1IQcYTxWVadkx0mZcd60lN+7Uf1+YU4pWnJIzI6kIOLJ4rKu9smMgrWcb05RGaTqQg4snisq72yYyCt5xvTlEZpOpCDiyeKyrvbCJxBnZI78uwncMWjcMWjcMWjcMWjcMWjcLCS1fHTiIchoNTrR0MqcxCOTuMaxzTl3/H9Bip/5y/8/oJYiYpNXXlV3aPkJf44virJam6HY04KzeVb+GDtdHXuo2b9/pXYk/8AD3PTmOjvuCeJ88Mv8cXxUJ3HvQDSVs6zEE6p+GbdXpMiE7j3oBtCmdZhb8Y5AtuwxVWdAwqN7RNTac7U/wBwTky6majSWNrou0fiLcb2lapnt3p+glyotTZ9dKiqiZTk2HOqwpWnAuKnkInHOpqn0+Ql0eiYM4xOnWQiZ27Cx6mV9wvx0fqIKKmkRFJN1Flvh8dP/D3PTmJZAzB+HJcO9ZTuqY7Km/8AqfzUIJp1lhKH1WlbxL/HF8VDpT7u3x+QlnuTX3SHSj/Bb4iW+5M/dLkIPx5XFXzwf5g9f7Qo7KTMS2YIhYlUS+RqM/mFdJoZZGk2z/IdGFZ9xJaKB1JKn1D3ly+Pn/h6/TmOjvuCeJ88Mv8AHF8VDpO2aoVKi1GJO6l2Bbs6ip+A6TvtmSGSP2iEt9ya+6XIQnsz5Vd6vngO6f37/wC0GVSoJQpMBHrh4jXcLDe4gy4y5U2TI6bgvx/1+Xx8dCFGsGwZ0qJfBlAMEwR1wsShLEacZbrWt1N4eZQ+2bThVIwfRo0KzLxkQV0dYNjFJVfWtRDs9XZS1WtCoJjIkRjuPQqyoQEKqDZxSl2hMpIiOXjkqsqEuglQLRtqXaEwlDEw9pVyt4/h10ysKiDs/X+4gJezL0WGtekHKEnHdet+lP6uKCgoKCgoKCgoKCgoKCgoKCgoKCgoKCgoKCgoKCgoKCgoKCgoKCgoKCgoKCgoKCn9PP8A/8QANBEAAQMCBAQDBwQCAwAAAAAAAgABAxNRBBESFCAhMVAQIkIFIzM0QGGBMkFxgBXwRFOx/9oACAECAQE/Af6k0jsqR2VI7KkdlSOypHZUjsqR2VI7KkdlSOypHZUjsqR2VI7KkdlSOypHZUjsqR2VI7KkdlSOypHZUjsqR2VI7KkdlSOypHZUjsqR2VI7KkdlSOypHZUjsqR2VI7KkdlSOypHZUjsqR2VI7KkdlSO39wIonkdUI7KjHZUY7KjHZUY7KjHZTODeUG7PFE8joRYWybinn9I9niieR0IsLZNxTz+kezxRPI6EWFsm4p5/QPZ4onkdCLC2TcU8/pHs8UTyP8AZCLC2TcU8/pHs8UTyOhFhbJuKef0D2eKJ5H+yEWFsm4p5/SPZ4onkdCLC2TcU8/pHs8UTyOhFhbJuKef0D2eKJ5H+yEWFsm4p5/SPjFC8j/ZbeOy28a28a28a28a28ampj5Q+ugmp8n6Lrwzz+kfGGJ5H+yFmFsm4p58vKPYIJ9HJ+iZ8/Gef0j4wwFJz/ZMzC2TcU8+XlHsUE2jk/RNzU8/pHxwuFed836IQYW0t0Ukenm3DPPl5R7IMpCOlvHC4V53zfohFgbIfGSPTzbxnny8o9nwuFed836IRYWybhkj09FPPl5Q7Rg8Xo92fTikP9mU8Gjm3TtODxmn3cnTgkl9A+GWfJ1PBT5t07Tg8Xo93J08J8Rl5AUbeLtmp4KfMenaYMUTDSJ0EYj04XbNTwU+bdO04fEZeU+J2z5Op4KfNunacPiNPkLids+TqeCnzbp2LS/XLj1PdaiutRXWorrUV1qK61P9dhQGSVhJSDg4i0ky14G3/qxDwPlRZT/Jt+OEsK4w1s/DbPRrZ9kwPx2WO+M/jP8AJt+Fg4RmJ2JSiwG4ssHAMxOxIRiaZxk6I2h27Z/pWWHq5Z+VZQ7fLPyqdomL3XRYfCVBqScmQxYOR9IPzU8DwFpdR4MZINTdVNHho430vmX12B+OyxE0ISZGGbrc4b/rUpCRu4Nkyn+Tb8L2d8R/4U/xSXs39bqb4pfypfkW/Hh/wf8AbpubrEQPJGwByTez5G9S9ot5RdB8l9fgfjssd8d/Gf5NvwvZz5SuyxQuMxL2aD5uX7Kb4pfypOeCbwbngf8AbrosVnNAxgtRXRMY/qQ/I/Xwy0T1qaWset/E8U5xUskBOD6hX+QzbzhmmxxserJGWsnJQYx4R0O2bKaSqepmyWHxjwNpds2U8rSlmzZKDFHBybot+PVo+amnKd8yTYp2ho5f243ALcAtwC3ALcAtwC3ALcAtwC3ALcAtwC3ALcAtwC3ALcAtwC3ALcAtwC3ALcAtwC3ALcAtwC3ALcAtwC3ALcAtwC3ALcAtwC3ALcAtwC3ALcAtwC3ALcAtwC3ALcB/Xn//xABGEAABAQMHBA4HBwUBAQAAAAABAgADBBESMTRhktITIVGxECAiJDAyM0FDYGJzkdE1UnFyk7LhFCNCUFOBgmOgocHCogX/2gAIAQEABj8C/tgqtG3EYmq0bcRiarRtxGJqtG3EYmq0bcRiarRtxGJqtG3EYmq0bcRiarRtxGJqtG3EYmq0bcRiarRtxGJqtG3EYmq0bcRiarRtxGJqtG3EYmq0bcRiarRtxGJqtG3EYmq0bcRiarRtxGJqtG3EYmq0bcRiarRtxGJqtG3EYmq0bcRiarRtxGJqtG3EYmq0bcRiarRtxGJqtG3EYmq0bcRiarRtxGJqtG3EYmq0bcRiarRtxGJqtG3EYmq0bcRiarRtxGJqtG3EYmq0bcRiarRtxGJqtG3EYmq0bcRiarRtxGJqtG3EYmq0bcRiarRtxGJqtG3EYmq0bcRiarRtxGJqtG3EYmq0bcRiarRtxGJqtG3EYmq0bcRiarRtxGJqtG3EYmq0bcRiarRtxGJqtG3EYmq0bcRiarRtxGJqtG3EYmq0bcRiarRtxGJqtG3EYmq0bcRiarRtxGJqtG3EYmq0bcRiarRtxGJqtG3EYmq0bcRiarRtxGJqtG3EYmq0bcRiarRtxGJqtG3EYmq0bcRiarRtxGJqtG3EYmq0bcRiarRtxGJqtG3EYmq0bcRiarRtxGJqtG3EYmq0bcRiarRtxGJqtG3EYmq0bcRiarRtxGJqtG3EYv7s5MPDonvFeAGk2MAuIiFLkzlJSBL4Ny0VeThbloq8nC3LRV5OFuWirycLctFXk4W5aKvJwty0VeThbloq8nC3LRV5OFuWirycLctFXk4W5aKvJwt9mhXj99EJP3hWoTUWZhT1PRDw6J71XgBpNjZJ1u3iuUfGlZ8rOFXBwat9UPHo6KwdrV1PTDw6J71XgBpNjZJ1u3iuUemlZ8rOFVBwat9UPHo6KwdrV1PTDw6J71XgBpNjZJ1u3iuUfSZ1nys4VUHBr31Q8ejorB2tXU9EPDonvVeAGk2NknW7eK5R8aVnys4VcHBq31Q8ejorB2tXU9MPDonvFeAGk2NknW7eK5R6aVnys4VcHBq31Q8ejorB2tXU9MPDonvFeAGk2NknW7WrO8ekZ1nys4VUHBr3zQ8ejorB2tXU9EPDpnPVaaANJsbJOt2tXKPjSs+VnCrg4NW+aHj0dFYO1q6nph4dM94rwA0mxsk63a1co+NKz5WcKqDg1b5oePR0Vg7WrqemHh0T3ivBI0mxsk63a1Z3j0jOs+VnCrg4NW+aHj0dFYO1q6noh4dM54rwA0mxsk63a1co9NKz5WcKuDg1b5oePR0Vg7WrqemHh0z3ivADSbGyTrdrVyj00rPlZwqoODVvmh49HRWDtaup6YeHRPeK8EjSbGyTrdLVnePSM6z5WcKuDg175oePR0Vg7WrqemHh0z3ivBI0mxsk63a1co+NKz5WcKqDg1b5oePR0dg7WrqemHh0z3ivADSbGyTrdLVyj00rPlZwq4ODXvmh49HR2Dtaup6YeHTPeK8EjSbGyTrdrVyj0jOs+VnCrgoNe+aHj0dFYO1q6nph4dM94rwA0mxsk63a1co9NKz5WcKuCg1b5oePR0dg7WrqemHh0T3ivADSbGyTrdLVnePTSs+VnCrg4Je+aHj0dHYO1q6nph4dM54rwSNJsbJOt2tWd49IzrPlZwq4KDXvmh4+T0Vg7WrqemHh0znivBI0mxsk63a1co9NKz5WcKuCgl75oePh0dg7WrqemHh0TnivBI0mxsk63S1Z3j00rPlZwq4KCXvmh4+HRWDtatsmHcCVVJUaEDSW9IPPgjzb0g8+CPNvSDz4I829IPPgjzb0i8+CPNvSDz4I829IPPgjzb0i8+CPNvSDz4I829IPPgjzb0i8+CPNvSDz4I829IPPgjzZLlEYuJiaVO8mAEC0y02fnaYeHTOeK8EjSbGyTrdLVnePSM6z5WcKuCgl75oePh0dg7WrbCHh0yqpKjQgaSwcOM/Ot4aVnSeFMPDkKjiP2dDSbbGUpSipSjKVKOcn87WFpnQz2TKSDdC0eTJeO1BbtYlSpNBHCLgoNW+aHj4dHYO1q2wh4cSqpKjQgaS2QcCXnW8NKzpPCmHh5FRxH7OhpNtjFSiVKUZSo0k/nuSeyrg1ndJFKD6w8mS8dqDx2oSpUmgjglwUEvfFDx8no7B2tW2DiHEqqSo0IGktkHAtW8NKzpPCmHhyFRxH7OrTbYxUolSlGUqNJP5/knsryDUd0nnQfWHkyXjtQW7UJUqTQRwC4KCXvmh4+HR2DtatsIdwJVUqUaEDSWyDj2rWaVnSeFMPDkKjiP2dDSbbGKlEqUoylRpJ6g5J5K8g1ndJFKD6w8mS8dqC3axKlSaCNsuCglb4oePh0dg7WrbBy5GekqNCRpLBzDjPS8UrjLOk8KYeHIVHEfs6Gk22MVKJUomUqNJPUPJvJXkGo7pIpQfWHkyXjtQW7WJUqTQRtFwUEvfFDx8OjsHa1bYOXIz0lRoSNJbJOvapZpWdLShrdHBmHhyFRxH7ObTbYxUolSiZSo0k9Rcm9lXBrO6SKUH1h5Ml47UHjtQlSpNBGwuCgl74oePh0dg7WrbBy5GekqNCRpLZJ17VKNKjp2ZQ1ujgTDw8io4j9nQ0m2xipRKlKMpUqknqPk3kryDUd0kUoPrDyb7N/wDOehb1Y3UQihA7NurbBy5GfnUaEjSWyTr2qUaVHTtZQ1ujbmHhyFRxH7OrTbYxUolSiZSo0k9Tg5cjPSVGhI0lsk69qlmlR07eUUtbo2ph4chUcRTzOrTbYxUolSiZSo0k9Tg5cjPSVGhI0lg6dC1SzSo6eBlFLW6Nkw8OQqOI/Z0NJtsYqUSpSjKVGknqcHLkZ6So0JGktknXtUo0qOng5RS1uhjDw5Co4j9nVptsYqUSpRMpUaSep6nD4BLl4ZcrJnSbbOFmuVff6fUYlRK5xlnmk9URDRJ3v+Ff6f04PJozvflaU0sUqzhtI5j1RENEne/4V/p/Tgck7zvvlYk5zskKzhrOY9URDRJ3v+Ff6f02+SdZ4g/+Pq0pznSdqUqzhtI5j1REPEHe34V/p/Ta5F1niD/4+rSkyk0k7cpUJQ1nMeqIh4g72/Cr9P6bJcuc8Sf/AB9WJJlJpJ4GRWcNpTzHqiIeIMsN+FX6f0bIw27iFDjDOEDSxK1ZznPPLwZChKG0jmPVGYriauFKVZw0hzjmPVGari6uFmqoazmPVGari6uFKVUNJzcx6ozVcXVws1VDSc3MeqM1XF1cLIoZmz0cx6oyBZAbjq8W46vFuOrxbjq8W46vFuOrxbjq8W46vFuOrxbjq8W46vFuUV4tIVkjqGFu4Z68QaFJRKGAfOluic4CxJL1WfKL8ucmoDMmWVq6r4Q82rqvhDzauq+F9WrqvhfVgPtqvhDzZafVUQ0P/L5i0L3R+bqtGe+nUzt66CFFTyZIv2FuSceB825Jx4HzbknHgfNgcjD+B82Ur1iS0P8Ay+YtC90fm4FCnjh08VPXuloBNLQgdOkOgUKlmJklz7MQXrl29IeiQrSDzNDF05duiXhlKEgc3UiM99OpnPff8nbQ/wDL5i0L3R+bYdvkKczHiZwlX9GLh7NKwAdwZRn2Xb1KnE1aQoSr+jKcPSkrAB3BlGdg/dF0ESlO7VIczJcPZpWFKO5ozs4U5KBMSQZ5k52yz1ToonBO4VKzxbkuwEGaZ6pGfIfFBK1zhMMvMzlDkoBQsqM8yczPH7xTmYimavPq2Zzp3I7/AFFmRP1bPGO5bHZaV2XcTYgyHwLEEEKGYg82w8U5LsBBAM9UjOy/LuRcskxUtDB4qbDINGUpP7M7WX6HoWqbIEyH88jPfTqZz33/ACdtD/y+YtC90fm2ILuUsvu0atmE7lGpnvuI1MIf7PlJFFU7KSU/swiJmTlUUzZZaGdJyOWygJ48kjZD7Pkt2FTp8v8ApnqMhlZ6p0s+TmZ68yWSmKmyTpeZnS8llZ6psk6TmZ9D/ZSjKCSdlJef2bBfPhLDOzJN9dWj2NlXypjtOYAD/ADbiDTM7bzOxQAXT8CXJqzy+wsqIQN8uhL76dGxGd4nU0Op6JwcqKwk0EsUz3j485dplHi0PkZ8judLPTJn/PIz306mS7fgqSDOEipM7cm8+KW5N58Utybz4paGEOkpnhU6VUujYh/5fMWhe6PzbEF3KWX3aNWzCdyjUz33EathHeL1tB+4rXsxXej5Whe9Py7LmHHRpkPt52U6l+7cbgC3n2Hb5GZTtQUGlFDRDn1HhSPFozvE6mmpMmVWEK9mc/n0Z76dTOluHqnSi9myp0SFq69/w1de/wCGrr3/AAyftD5T6bRO5tiH/l8xaF7o/NsQXcpZfdo1bMJ3KNTPfcRq2Ed4vW0H7itezFd6PlaF706thyP6idbH2sVqgna1KzlRRS1QdXGqDq43FPg0d3rRneJ1M577/R/Poz306mc99/ydtD/y+YtC90fm2ILuUsrukbMJ3KNTPfcRq2Ed4vW0H7itezFd6PlaF70/LsIX6qgr/LE8zRTvKvBI8P4zQ3LPL5blnl8tyzy+WlJlOktGd4nUznvv9H8+jPfTqZz33/J20P8Ay+YtC90fm2HafxOSXZ1hncWhMqUpmPJObQWpaa6Ejv8AG95ksh2jMhACR7Ge+4jVsAaHq2hX34BOQTbsxY/qpP8AhnSwNy7eSqsBDU7CJT966+7X/ot9scJnKAkepFMmnYkpOgMqLeImJB4h40mnYjO8TqZz33+j+fRc5aU7tPGVJzM5CVoUct+FQPMds4BeIB3WYqHrFoaapKvujxTLz7BVJPdLzPEf7FrT4d6l5YKR7Q04wjqXTkg2TclL5/zITxUe3yaGW8epyhTupyxLLKWekEKExGcGXm2FuX5muHued6qmzAPUK/kCyJqHTlaXoISkBJNOwS8lyDwTVyc2gtPdkPXZ505wWiPu3ThWZQ3ISSZdgPnXsUk0KGgsJrzIvf03hkP1ac9hHbw+sXbSodOocaQkJZbpxJFvCJP6Y9unYi5y0p3aeMqTmZ1NWlRyv4VA8x/Ps4lbMANtQGzCTZl59LSFayNBUdigbTcqKPdMjSnOdJ2dySn3TI0pJUdJz7SQLWkWKLbolXvGXZziVswk/vG6zG30YWrMbfRhasxt9GFqzG30YWrMbfRhasxt9GFqzG30YWrMbfRhasxt9GFqzG30YWrMbfRhasxt9GFqzG30YWrMbfRhasxt9GFqzG30YWrMbfRhasxt9GFqzG30YWrMbfRhasxt9GFqzG30YWrMbfRhasxt9GFqzG30YWrMbfRhasxt9GFqzG30YWrMbfRhasxt9GFqzG30YWrMbfRhasxt9GFqzG30YWrMbfRhasxt9GFqzG30YWrMbfRhasxt9GFqzG30YWrMbfRhasxt9GFqzG30YWrMbfRhasxt9GFqzG30YWrMbfRhasxt9GFqzG30YWrMbfRhasxt9GFqzG30YWrMbfRhasxt9GFqzG30YWrMbfRhasxt9GFqzG30YWrMbfRhasxt9GFqzG30YWrMbfRhasxt9GFqzG30YWrMbfRhasxt9GFqzG30YWrMbfRhasxt9GFqzG30YWrMbfRhasxt9GFqzG30YWrMbfRhasxt9GFqzG30YWrMbfRhasxt9GFqzG30YWrMbfRhasxt9GFqzG30YWrMbfRhasxt9GFqzG30YWrMbfRhasxt9GFqzG30YWrMbfRhasxt9GFqzG30YWrMbfRhasxt9GFqzG30Yf7YP//EACsQAQABAgQEBwADAQEAAAAAAAERADEhQVHwMHGBwRAgYGGRobFQ0eHxsP/aAAgBAQABPyH/ANK2bNmzZs2bNmzZs2bNmzZs2bNmzZs2bNmzZs2bNmzZs2bNmzZs2bNmzZs2bNmzZs2bNmzZs2bNmzZs2bNmzZs2bNmzZs2bNmzZs2bNmzZs2bNmzbnpY4ZpshQ6cJ5ZoFwdeK+fPnz58+/fn355c5ZPpydenO3o67kGOGabIa09TAJI7IZd3F2lC2Pla3++jru4Y4ZpshrTywU0dgMu7i7njbHysYejrzoY4ZpshrTxMKtDsBl3cXmuDsNptEejruY44ZpMhWWAJI7AZd3F2HC2PlYI9HXJyxYzTZDWsqITR2Qy7uLvOBsfKwR6OujljhmnyFZUVDOwGXdxeZ6ew2mwR6OuR5ijNNkKykpJHZDLu4u68Wx8rBHo69PWLGabIVlDSSOyGXdxbn9xGzWwR6OunljhnHyFNrLhnZDLu4vMvPYbTY9HXI+xwzTZCsgaTR2Qy7uLuvNsfKwR6Ovj1jhmmyFZE0mjshl3cW5/cxs1sEejr45Y4ZhshWQPQzsBl3cXmG/sNf1Yw9HXp6xYzDZCsiSSR2Qy7uLv/PsfKwR6Ovj1jhmmyFZE8mjshl3cXmWPuNf1YI9HXx6xwzDZCsgaYztBl3cXmyftNf1YI9HXp6xwzTZCshaTR2Qy7uLsmf8A3P1YIPR18cscM02QrInho7IZd3FwKZn+d+v1YIQejr5vY4ZhshWQNQzshl3cXmSZtNf1YIQejr4/Y4ZxshWQNJo7IZd3F2wL75/Vgg9HXx2xwzjZCsgeGjshl3cXmAL8r9fqwBB5QJp8rW0/XA4179+/bv37d+/bv35ONjQFxXMtGOn83fH7HDMNkKyB6GdsMu7iydQbvtf1YIQeUzCnVb7f7Yo2GWA75Yy+V4mP0VOKv+Hqfd8HJwq6ub/NpI1GSbakTzc6AzhqdUcSTsy/9fqwQg8ouUOq1tP2xQtEmB3yxl8vFfLFUkq+TT1Pu+ljsqurm/ztwHMVsM5udAZk1OqOFzAU+f8Ar9WAEHlMap1Wtp+2KHoZYHfLGXFx0QlxF/4ep0X0sdlF1df5+5Cw4o2ubnRGdNTqjgcyDd5m/qwQg8pK0+RvtftihYLLB75Yy++Lj5FLir5NPU5S+ljsqurm+gbgaYrYZzc6AzhqdUebYGv+9+rCEHlOAx2uP2nwWf4RNDL54uPkUpKvk09TlT6XOyi6ub6DuLtithnNzojOGp1R5OYDvW/6/VgEHlOAw2iP2ihsL8pHYyoE8JU5MBfRw5+wluD/AMPU+76XOyi6ub6Fua5ithnNzozMmp1RV6lah3fa/qwQg8pwNkx/tHDY/SzsZeIN4SpQYC+jguHipur5NPU+76WOSi6ub6HuLtithnNzqGHK6UFlrM/1YIQeU4DfuY+6Pmvcs7GXlFPCVKjAX0efHzKXEX/h6nKX0udlF1c30ceDZEf7R41P0M/rLzkXgVIjAX8rHDCuF+TT1Pu5kzsourm+jjgO6Y/uv98yZ2MuCLeBUiMBfxY4ZS4q+TT1Pu+ljsqurm+jjgbJj/aPG3guef1lwzDwKkNhemOEUpIvyaep0X0uVlF1c30fhto0LHn/ABWn6Z8RX0ljzc/akVjNZVurr6RuJse/sd45V/3DhKFlum+NIkVMq50FElR9xfSJcTa2L7HeOVfDmJmcCVQUxbn+/apKFMVcV8S6kqKuL6v++kbmbWxd/wAcq6iOIjI+Y1QJi3hq9lSZFGVJV8oUSVDHF6vpHFerBsXf8VcIRHERkfILKGxbh1ez5qRcyUSr70MPNNwKgri+p6Rx3qYXF3/FEIIiJIjImvgqAbFuHV/B1pIZ0olXWn0owPOtKSk44nV9IpKUcXF35ZUuCzl5rSsuh1qcO0kyWq1bSfd4UkQqHOL1fSOE5B3tVydeIfEmVX4HV9I4HHytBkkxOItCVUUcX1PSM2eXZoYk5cQKJVSdi+p6Ruf2u1quSYnEbhKqTsX1fSM2ecrQxJMTiP5iqAYn1fSJQEyHi85znOc5znMZv2hfQcg/ZJIYcaE+8hQ1x9LPIgwcYXU8VGj/AJqn/NUvwWKGMkkjrClfaqbZq4V/IY+iNv10MUiFSJMn28j58+BEgjWmAhVDVZ8FNu1cGPqbAAslKRFACmhePEfMiaGXGhoDIqcvojf9dfW+dU27V4F4gnhh1o6CFcAsx8R4JSJhJxo6AxkCSnwiIkl2ENIAhVzBYUMqmziQ6NZqQCpZ9jSga1klMThg0dwuAIwaFSyCAEMNGmQBEI3Rgc3jD9LH1r+lSkHSk+ZpyAM107nzTjlg4VonhPDE7Ek4YOlMhYomRMyGtIgHLLHqHLnSq1BZQTP85v8Arr6nzqm3aqK3TStj1eO6afBNRNwzNWiVCEzJMOUXgo1niUsmNGsZtzZc5Q1p2pnFgxCLNCQo82LdNihdc+LBiU2aw6EyLA2hp4btQEyZ9ClWAWMly7apf2KT8kViBUDBzczleswGRcLrVDE+KGTBkrdddBpysAgn2InpQAKe7pJ6VHSZhvURnofzm/66i53GtRc5+PfZPVhwnS5owva/ipt2qitk0rY9XjumnyB9b3p8d+0ePSoMEuRVgEPcvXzNE3AwNeL/AA6eDlSi5X+pqExpz0oybcqWfUVuOuicaoLsUOsH89v+upMzkUsqMeVb7+lb7+lb7+lJtYo43Xty8VNu1UVsmlbHq8d00+QP7c9PjvWjx5B6yP1r76k32zBTdr/r6v14iCAIuoYrVfkVuOuvpP573/XX1/nVNu1UUCS1BT3/AMHx3jT5A/tz0+O9aPHrShroGgQYyk96aWC4DiZM9Ere/etz963v3pGQl0la3HXX0n897frr6vzqm3aqKGZwI9p/B+qctkDETKe2KfFXkI1miTAcUw+eb7FH2gtvAg8czzIj8j3qzsPJBInzD8UBsj4C50+R/mpD0t1An5j5oawetJIjagxYIOeH6H2NEEkl4hY6xZ6UAkRoZJxbYi9KjZ9Nu85kTHvj4bjrr6D+eymTjgli1qJgCiEe0+YrTZjJ7E06igKMOnwmjEEcUy9hR4SmKdK4Upbvl/XTsFIePvRw6KT3bIizWNWSZEOo8J1IM0LCX2S/IrCBUSAP7Go8yAmgcDFy8MOgoEuOYc4/FoUPb8TeVRvaKJHAzc/BGSY2WPfKoAsww8m3RTFPyS/OdM84vutS4SeEg4MvwfNCCNKns1wCWPWieHWEOm/z1lOYr6EDzLpWfcoLDkPGIAwFhekGrTH7QAgIPal0rOqUAICD28Z+K938U4rK5kr18UFXbqS+Kb7iCr78QEIJ70L7MGP2k/aT9eNhOYqwnIf+n3NmzZs2bNmzZs2bNmzZs2bNmzZs2bNmzZs2bNmzZs2bNmzZs2bNmzZs2bNmzZs2bNmzZs2bNmzZs2bNmzZs2bNmzZs2bNmzZs2bNmzZs2bNmzZv/9oADAMBAAIAAwAAABAAAAAAAAAAAAAAAAAAAAAAAAAAAAAAAAAAAAAAAAAAAAAAAAAAAAAAAAAAAAAAAAAAAAAAAAAAAAAAAAAAAAAAAAAAAAAAAAAAAAAAAAAAAAAAAAAAAAAAAAAAAAAAAAAAAAAAAAAAAAAAAAAAAAAAAAAAAAAAAAAAAAAAAAAAAAAAAAAAAAAAAAAAAAAAAAAAAAAAAAAAAAAAAAAAAAAAAAAAAAAAAAAAAAAAAAAAAAAAAAAAAAAAAAAAAAAAAAAAAAAAAAAAAAAAAAAAAAAAAAAAAAAAAAAAAAAAAAAAAAAAAAAAAAAAAAAAAAAAAAAAAAAAAAAA8888888888888888888888888888888888888888888888//AP8A/wD/AP8A/wD/AP8A/wD/AP8A/wD/AP8A/wD/AP8A/wD/AP8A/wD/AP8A/wD/AP8A/wD/AP8A/wD/AP8A/wD/AP8A/wD/AP8A/wD/AP8A/wD/AP8A/wD/AP8A/wD/AP8A/wD/AP8A/wD/AP8A/wD/AP8A/wD/AP8A/wD/AP8A/wD/AP8A/wD/AP8A/wD/AP8A/wD/AP8A/wD/AP8A/wD/AP8A/wD/AP8A/wD/AP8A/wD/AP8A/wD/AP8A/wD/AP8A/wD/AP8A/wD/AP8A/wD/AP8A/wD/AP8A/wD/AP8A/wD/AP8A/wD/AP8A/wD/AP8A/wD/AP8A/wD/AP8A/wD/AP8A/wD/AP8A/wD/AP8A/wD/AP8A/wD/AP8A/wD/AP8A/wD/AP8A/wD/AP8A/wD/AP8A/wD/AP8A/wD/AP8A/wD/AP8A/wD/AP8A/wD/AP8A/wD/AP8A/wD/AP8A/wD/AP8A/wD/AP8A/wD/AP8A/wD/AP8A/wD/AP8A/wD/AP8A/wD/AP8A/wD/AP8A/wD/AP8A/wD/AP8A/wD/AP8A/wD/AP8A/wD/AP8A/wD/AP8A/wD/AP8A/wD/AP8A/wD/AP8A/wD/AP8A/wD/AP8A/wD/AP8A/wD/AP8A/wD/AP8A/wD/AP8A/wD/AP8A/wD/AP8A/wD/AP8A/wD/AP8A/wD/AP8A/wD/AP8A/wD/AP8A/wD/AP8A/wD/AP8A/wD/AP8A/wD/AP8A/wD/AP8A/wD/AP8A/wD/AP8A/wD/AP8A/wD/AP8A/wD/AP8A/wD/AP8A/wD/AP8Affffff8A/wD/AP8A/wD/AP8A/wD/AP8A/wD/AP8A/wD/AP8A/wD/AP8A/wD/AP8A/wD/AP8A/wD/AP8A/wD8d888c86//wD/AP8A/wD/AP8A/wD/AP8A/wD/AP8A/wD/AP8A/wD/AP8A/wD/AP8A/wD/AP8A/wD/AP8A/wDfPffffe3v/wD/AP8A/wD/AP8A/wD/AP8A/wD/AP8A/wD/AP8A/wD/AP8A/wD/AP8A/wD/AP8A/wD/AP8A+fPffffZ3v8A/wD/AP8A/wD/AP8A/wD/AP8A/wD/AP8A/wD/AP8A/wD/AP8A/wD/AP8A/wD/AP8A/wD/AP4XPffffYHv/wD/AP8A/wD/AP8A/wD/AP8A/wD/AP8A/wD/AP8A/wD/AP8A/wD/AP8A/wD/AP8A/wD/AP8A8fPffffavP8A/wD/AP8A/wD/AP8A/wD/AP8A/wD/AP8A/wD/AP8A/wD/AP8A/wD/AP8A/wD/AP8A/wD/AP5fPffffenv/wD/AP8A/wD/AP8A/wD/AP8A/wD/AP8A/wD/AP8A/wD/AP8A/wD/AP8A/wD/AP8A/wD/AP8A9fPffffYHv8A/wD/AP8A/wD/AP8A/wD/AP8A/wD/AP8A/wD/AP8A/wD/AP8A/wD/AP8A/wD/AP8A/wD/AP8A3z33333B7/8A/wD/AP8A/wD/AP8A/wD/AP8A/wD/AP8A/wD/AP8A/wD/AP8A/wD/AP8A/wD/AP8A/wD/AO3z33332B7/AP8A/wD/AP8A/wD/AP8A/wD/AP8A/wD/AP8A/wD/AP8A/wD/AP8A/wD/AP8A/wD/AP8A/wD/AN999999oe/zzzzzz3//AP8A/wD/AP8A/wD/AP8A/wD/AP8A/wD/AP8A/wD/AP8A/wD/AP8A/wD98999994e/rf88888h+//AP8A/wD/AP8A/wD/AP8A/wD/AP8A/wD/AP8A/wD/AP8A/wD/AP8A97/3333h7/8Ac99995De/wD/AP8A/wD/AP8A/wD/AP8A/wD/AP8A/wD/AP8A/wD/AP8A/wD/AP8A/wD9/ffcnv8Az73333mJ7/8A/wD/AP8A/wD/AP8A/wD/AP8A/wD/AP8A/wD/AP8A/wD/AP8A/wD/AP8A/wD8vYHP6Bk/ffeWXv8A/wD/AP8A/wD/AP8A/wD/AP8A/wD/AP8A/wD/AP8A/wD/AP8A/wD/AP8A/wD/AP73XvuHPvnPfa3v/wD/AP8A/wD/AP8A/wD/AP8A/wD/AP8A/wD/AP8A/wD/AP8A/wD/AP8A/wD/AP8A/wD/AP8AvDPvvvPOHv8A/wD/AP8A/wD/AP8A/wD/AP8A/wD/AP8A/wD/AP8A/wD/AP8A/wD/AP8A/wD/AP8A/wD/AP8A+/377777X/8A/wD/AP8A/wD/AP8A/wD/AP8A/wD/AP8A/wD/AP8A/wD/AP8A/wD/AP8A/wD/AP8A/wD/AP8A/wD4PfvkokVP/wD/AP8A/wD/AP8A/wD/AP8A/wD/AP8A/wD/AP8A/wD/AP8A/wD/AP8A/wD/AP8A/wD/AP8A/wD/APex0FAARR//AP8A/wD/AP8A/wD/AP8A/wD/AP8A/wD/AP8A/wD/AP8A/wD/AP8A/wD/AP8A/wD/AP8A/wD/AP8A/wDhAAAATV//AP8A/wD/AP8A/wD/AP8A/wD/AP8A/wD/AP8A/wD/AP8A/wD/AP8A/wD/AP8A/wD/AP8A/wD/AP8A4gEAAAAFX/8A/wD/AP8A/wD/AP8A/wD/AP8A/wD/AP8A/wD/AP8A/wD/AP8A/wD/AP8A/wD/AP8A/wD/AP8A/wDiBTDDDDc//wD/AP8A/wD/AP8A/wD/AP8A/wD/AP8A/wD/AP8A/wD/AP8A/wD/AP8A/wD/AP8A+P8A/wD/AP8A6400009z/wD/AP8A/wD/AP8A/wD/AP8A/wD/AP8A/wD/AP8A/wD/AP8A/wD/AP8A/wAAxV89/wD+/P8Az/8A/wD/AP8A/wD/AP8A/wD/AP8A/wD/AP8A/wD/AP8A/wD/AP8A/wD/AP8A/wD/AP8A/wDpvq+qH+7e7qFLHVp0v/8A/wD/AP8A/wD/AP8A/wD/AP8A/wD/AP8A/wD/AP8A/wD/AP8A/wD/APmQKq6fKfRfiKpQjUvP/wD/AP8A/wD/AP8A/wD/AP8A/wD/AP8A/wD/AP8A/wD/AP8A/wD/AP8A/p/677dJ9cvAOki8Qff/AP8A/wD/AP8A/wD/AP8A/wD/AP8A/wD/AP8A/wD/AP8A/wD/AP8A/wD+FP77fFxFnbjvbQj8/wD/AP8A/wD/AP8A/wD/AP8A/wD/AP8A/wD/AP8A/wD/AP8A/wD/AP8A/wD/AP8A/wD/AP8A/wD/AP8A/wD/AP8A/wD/AP8A/wD/AP8A/wD/AP8A/wD/AP8A/wD/AP8A/wD/AP8A/wD/AP8A/wD/AP8A/wD/AP8A/wD/AP8A/wD/AP8A/wD/AP8A/wD/AP8A/wD/AP8A/wD/AP8A/wD/AP8A/wD/AP8A/wD/AP8A/wD/AP8A/wD/AP8A/wD/AP8A/wD/AP8A/wD/AP8A/wD/AP8A/wD/AP8A/wD/AP8A/wD/AP8A/wD/AP8A/wD/AP8A/wD/AP8A/wD/AP8A/wD/AP8A/wD/AP8A/wD/AP8A/wD/AP8A/wD/AP8A/wD/AP8A/wD/AP8A/wD/AP8A/wD/AP8A/wD/AP8A/wD/AP8A/wD/AP8A/wD/AP8A/wD/AP8A/wD/AP8A/wD/AP8A/wD/AP8A/wD/AP8A/wD/AP8A/wD/AP8A/wD/AP8A/wD/AP8A/wD/AP8A/wD/AP8A/wD/AP8A/wD/AP8A/wD/AP8A/wD/AP8A/wD/AP8A/wD/AP8A/wD/AP8A/wD/AP8A/wD/AP8A/wD/AP8A/wD/AP8A/wD/AP8A/wD/AP8A/wD/AP8A/wD/AP8A/wD/AP8A/wD/AP8A/wD/AP8A/wD/AP8A/wD/AP8A/wD/AP8A/wD/AP8A/wD/AP8A/wD/AP8A/wD/AP8A/wD/AP8A/wD/AP8A/wD/AP8A/wD/AP8A/wD/AP8A/wD/AP8A/wD/AP8A/wD/AP8A/wD/AP8A/wD/AP8A/wD/AP8A/wD/AP8A/wD/AP8A/wD/AP8A/wD/AP8A/wD/AP8A/wD/AP8A/wD/AP8A/wD/AP8APPPPPPPPPPPPPPPPPPPPPPPPPPPPPPPPPPPPPPPPPPPPPPAAAAAAAAAAAAAAAAAAAAAAAAAAAAAAAAAAAAAAAAAAAAAAAAAAAAAAAAAAAAAAAAAAAAAAAAAAAAAAAAAAAAAAAAAAAAAAAAAAAAAAAAAAAAAAAAAAAAAAAAAAAAAAAAAAAAAAAAAAAAAAAAAAAAAAAAAAAAAAAAAAAAAAAAAAAAAAAAAAAAAAAAAAAAAAAAAAAAAAAAAAAAAAAAAAAAAAAAAAAAAAAAAAAAAAAAAAAAAAAAAAAAAAAAAAAAAAAAAAAAAAAAAAAAAAAAAAAAAAAAAAAAAAAAAAAAAAAAAAAAAAAAAAAAAAAAAAAAAAAAAAAAAAAAAAAAAAAAAAAAAAAAAAAAAAAAAAAAAAAAAAAAAAAAAAAAAAAAP/xAAqEQACAQMCBQQCAwEAAAAAAAABEQAhMWFBUSBQcbHBEJGh8EDRgIHh8f/aAAgBAwEBPxD+JLEYjEYjEYjEYjEYjEYjEYjEYjEYjEYjEYjEYjEYjEYjEYjEYjEYjEYjEYjEYjEYjEYjEYjH8wE8VKw8nHeEpJfiqqqho2huycbDXvyZfFTsPJx37MoFc8Wna5NcnwNb9bUHJl8VOw8nHeMoFc8XXsJrk42Gt7cnX1TsPJx3jKBXPFTb5uZONhr35Nf4dh5OO8ZQLnipqa5NcnwJag5MvipWHk47xlArni0zXJrk+B78nX1TsPJx3jKBXPFpi1NcnwOT3+HYeTjvGUCueKmprk1yfAlqcmX6isPJx3jKBXPE9uwmuT4Hvnk1/h2G2TjvGUCueKmHTU1yfAluTX+HYbZOO8ZQK54qamuTXJ8CWp6HFQ7DbJ8bz6B+k+ofpPqH6T6B+k+ofpPqH6QwAsaAgCc2ttv0/OVNtcbB5hIiBEcOma5NcnwPW6E7DbJjAxVJPEcwHEb5OO/S4AFB+eIw8h9X7whECI9aYdNTXJ8CW9BCRFQbZPgawqLKpPEdcCN8nHfpcBBDkIgI6Lj6v3hIiBESnprk1yfAlvQipqg2+lBrC9SZk6uDD/u4TqcS+Rx36XAACHI6CRcaE6E9PnX1oDshtnwGsMEKZJ9CEhrBhpvn1OoO8ycd+lwAKDkxFsoaDPgNYYFVEngITBgw/wC6HIY0b5OO/S4oFyYQoA/+gM410rchFHhMQSFwN8nHfpceoj8568pDkAHyA+Q163IIKPqiB7g3ycbb9L9INEREsCH5z15SEd0A+Q7hr1uQQUYgA5muTjYa9LuKHqNERGssLH5/3lGJUaCp1GhW+4/ZmkX9cI0RERq0Hz/vKRCQZDf/AGEEUPCMEREsrD5z15SoQ5DfPWJX4RgiIllYfPIkMnY6+3GT1X2EwfaYPtMH2mD7TB9oCmA9vzmekhQNwBvS0CgibFQFijT0cEcAFUdTsGJ9BnhHAwQKgqDpeq9Nc1KoLock+V2uDD6DMU40Fh0RPiXUGKsyHFoMgLD0gO4ZkFJEM3I1WsCGDWiiddy31mxirFQ6LPVwWLVsT/svdC+GwAVlgnV3g+2FHUAmwAFz8D4iygVIRoZZjrYaxe0BWwf0dDFknSAyAPKQuY7YooiqkN2rTp+d8rtSq3CKBVrYKs+j9UR0W2JdSRU1oEJ9BmfRyn3mwnzXafY7J9vt6lhEGAqgUlcmTUjRj+4QnBCIyvrDi7APsUO8AQsdoIN/zvl9vgw+gzAfUG+hBHdQ8k0Fg0V9n0jnRCSBoFR7Pafa7IQsT+YJ6GH00/KD3gDHYiCWA1DZgsX0It1EUPEIJaBEpfaktdHZBb85T2lU7EG1NokDBJaVy7M+oxmRF+w9OkRqSI++4OkJCd6Kq2YIfxBkwVhhk0ISYQrZ9XBA6E1mgoXNydGCqO4IKg2UTJZG+lzBfRJKYKtqKw1IyWz0A3O0UNGEA7Eaj2OYHwbEexSELDcRLJPYf0JXK2D/AEK78fy4aNGjRo0aNGjRo0aNGjRo0aNGjRo0aNGjRo0aNGjRo0aNGjRo0aNGjRv48//EACoRAAIBAgQGAQUBAQAAAAAAAAABYRGRITFBURAgUHGhscFAgIHR8PHh/9oACAECAQE/EPtJnk8nk8nk8nk8nk8nk8nk8nk8nk8nk8nk8nk8nk8nk8nk8nk8nk8nk8nk8nk8nk8nk8nk8n/eBGlmJCykUikUikUfNKX0fbSWbEJdFzZ7+76PGtWIS6Lmz393+uj7aSzYhLolzZ7e76PtpLNiEvDmz3930fbWpiEui5s9/d/ro8aWbEJdFzZ7e76PtpM2IS8FzU6v7vo+2lqxCTRc1Or+76PGlmxCXgubPb3fR9tJmxCXguanV/d8ayeCCNF5IvJF5IvJF5FZQq9X9dVa7wJpKrlp1f3f644qwFEFEubFPx1fQGP/AJhCVXHNf3fHJeHNiwii5sU/HV9Ca/8AmGSVRTq/u+ORJc3vCKFKbBm05cU/HV9EbHYPjkEXN7whcVRLg0mqMY2hxxT8dX0fIoub3hC+uiXI0mqMq65DFOx1fSFU9s9hNNVXKhp/mHvnt46Sx0yD2hwJp5cabeZqxLAaI8ge2u8dJwTIPaOwmnkLZux1exTVXxQjTQ9n/wAnScBhPJ7QJ8HKhGmqoa2f6dJZjsNHtzIR5A1v83Sc44aPmQjxENbPbx0KiqmpzpOTEy5MuTLky5MuNqo3h9csuqdfQ7v1/L+SX/O4mwW+fyePykRsDph34aYpTL806J7fpnjL1x8cVe6JVwMkxNo0tUNXaVtWeGgyh3hVHjvhoNSo2HPHOws2T/PYQa60eayKY/5Spomyz+TOotHuIVeu2ePgSVEnX672/TH6cUR/dIqZDJfg8Mf1SjzX7PBR572zwfbgkCUFuMqSLeMhgmkqhW8qM07T0+RfXe36Z4i4+GEsNV8iUazdbiLao2CPNe2K6PZGgjwAm2TQmi+OH9oSLlMSta4mFu3yL65iEVaaD3Io3TigvSlTGuwnso0JMIb+gq2lKUSySMFaVbd2R1At1I2P1WAlUqlKFZxNjKOE/nY2r5UNEFM6/H3cSuxK7ErsSuxK7ErsSuxK7ErsSuxK7ErsSuxK7ErsSuxK7ErsSuxK7ErsSuxK7ErsSuxK7ErsSuxK7ErsSuxK7ErsSuxK7ErsSuxK7ErsSuxK7ErsSuxK7ErsSuxK7fbz/8QAKxABAAICAgEDBAIDAAMBAAAAAREhADFBUWFgcYEQIDChkbFQ8PGw0eHB/9oACAEBAAE/EP8AyVoECBAgQIECBAgQIECBAgQIECBAgQIECBAgQIECBAgQIECBAgQIECBAgQIECBAgQIECBAgQIECBAgQIECBAgQIECBAgQIECBAgQIECBAgQIECBA2fPZDexza+AlQRE0c4Y4k0KY2z+AoQIECBAgF9kKBCoIwKuKgJguQ8kzCJA0yo9HrYVAoT5qE+wJUHXS7IaA87qtZS/kCaP1lM1isIWZblG3vkBIttVUqtqrte/R1uigUJ83JV7EqC+LQdbQHnXVtlL+Qtgt6yaSoVJCltpRt0MhCDtVWVVlV2q8+jmeTQKE9qlq8BKg68ga7QG3T1bZS/lrwoZ4F22lG3/88ACWyyqqrMqrtZ3mvRtsCAUJ8/CXyBKgqF12W0B53VtlL+QJYLySCwXhAjLco25gEE7lVlXlXlZ36OvkPSb+znsAVBWNovpqvO6tspfyAurygChfEDttKNug5QIO1lZVbVdq9+jrlDth+JblvkAVBWtLgxtV3m6pllL+QJotyjCxMIXblKNuYBBO5lZVlVXluZ5zXo0qPVDfNQl5oJUFU2mmmq87q2yl/IEsBL4yuKxeEDt9KNubgTyqsqtqvKrv0dDZbqNHk4S+wSoKldFtZiu83VtlL+QFYLcoyovSBLfSht0MgEHaysq8q8r2+jTCcSUtATzMJd6CVBXqgIZqvOuqZZS/kCWC3KIrE0g5fSjbmACCvKrKqyqu1bX0ccHfOG4LcleaCVBcJprpqvO6tspfyArAS9GVVWLggdtyjbmgQS2yrKsyq8q3Pn0cCGVJw/zUt9gFQWqNN1Ziu89Uyyl/ICsBL0YrJgVJAzL8o26DkBgncqsqzKry8y+jrFBS4X5oW+QJUFzZYEfVeddUyyl/IEsFvjKKMGQA5fSjeMIMS3MrKsyqu1ZZfRwydtEvyUt5kCVBSrpopqu89Uyyl/ICsBK1WSC6LghS30o24gME9ysq8q8r36OucpTh/m5b7BKgtU1XV1XYeotlL+QJoJejKqLEkh5flc8OQmDUrbKsyq8vl9HAplpcJ83CXmQJUFgigWC1XcboNspfyBNFuIymDLgNKm4b0zkUJ7tlWVVeV79HD5tlwz71LeaCVBVo0F01XeeqZZS/kCWC3ox2HVeELMryueHM4jXllXteW9+jrHCa4f8Au480AqC1XVNXVdh6pVlL+QFYLeDvGmi82Cl6SpvHPgP5nte3z6OB7OS4T5uW+QJUFAsmBl1Xcbq2yl/Ja1eOgt5CSpU6U45wEHln98vo7kU84DsrlvNBKgyEaC6arzOrbKX8gSwW9GMgKTghuU5R7FzOI15ZV5V5fP2xnxnxnxnxnxnxnxkeMjPjPjPj/O3MMlwP8XJeVAFQWMtU9dV5HVMspfyBNBK0BzixBQzIDvtDfs5iggPP8vl+0kZk8EQC0JgNoSLl0EUHBfPj+Xjx44ePHDx44ePGQKZOgqQShAmygt/mrHOS4XsrlvNBKgoLbAgaruN1bZS/kidXj6IIJJ7Q3DeOdoHvPuzy/bfAVgRhBoTQWoBXHgzDwaSjQFCoaJX8g4cAtZQCFFpRbaqiDDtiEOJWtG1f80ZUr7q852xJLY2IAs49L6aTk/YyIIn4wVgJescD2ckLtOUb4XMw0eWV7fL5+2zSbiZAWhoC0ljimAjAYiigLDosEqn45IcBHZQFKBpCFtTogwo+BbCVrRtX/OGM6GxJNjy/ESSALOPG+Gk5P2IjCJ+EJQLXgJnHZE5nAeQcjY8c4wQe8+75fP233QcEYC0KALSArjikDQQijQCg0WCVV/HOBk8gC1FpRbaoIjBz8A2krWpZV/z3fnH4eTywe66iSQBZV6300nX7ERhEPuLot6x1zAUhaVNw8HHM4CD3mfK8vn7RFndBGE8CaNqJFqAqx4IRRoChoUSyvx8OAaskClA0hbaqiGHfwDYStaNq+gDnI2wWJLY911GyALOPa+mk6/YyIIn2gtFrRjvQ1wQu05Rv4cxgIDu58z35+1IYsBJhQ0dG1ReT5RFFGJDhMFQotT+PhvAHSQCjANIW2pKIKi5BtJWtFlX0GxrPEk2PfxEkgCyr2uJpOv2IjCJ9SVgtdGPGN5VF8Ao2PHMGEB5+1AJgbdhQ0cAWqPDlwAQgxT+ihRyqQP4ydPjH/wC/T/1+MSnkgSkBpRC2tEQYUXINpK1o2r6FeltsFse/iJJAFkXnfDSdfsRGETAUASrEGNyUlQeU5Q3jnAQeb+Z5ftYqZCtmFDRwBagPDHyQc4bD/AUKOVOfp+ijk6fGUY+ZPHj8I7ZKAUoNIW2qqgw7+BLSVrRtX0MYx57xWx7o4jZAFf2gtHHMYTwsZmAQfy+88vn7UMgvSTChx0bVF4C8UHKcU/wFCjlWOPrGLA/aOnxlMDHd/wDH3cPXeCIsgC0gaUQtqSiGFFyDaStaNq9+jkQmW92FDR0FqA8I/CChDinXgUKOVnPH2zcZvvw4k8mtefb7T4aUAtQaQhbVBEGE8aDaStaLKvo5DIIdswp1wBaoxmyKAnDp1VBQo5U5/AtHkd+MohyrXn2+p5LJgpQaQttVVBh38A2ErWiyr6OUiZb2YUNHAFqA8I7CB1GJT+AUKOVY4/E+DUjT4cThDXcefbCzSSC1A0hba6IwcXJNpK1o2r6PAL+CgASLj53NdLiQaIgiCBsRKRLE7zx+Ix8IZrAEpDTqikNvBiFcDtpStbau/SKytUnVV+RvzubAkRYiAVIiSI8iIjyfhMFOO0IO3+pxt6XEqSlTtXvIQLhOfceHzkSHhtPh8npAy3cl8lfcWut3TYyCBEEEBEJESkSESkfvOcA6JwHS+Zpa28YsmKuoWVV2v1LKGE/pPObB/wAXi9D0gZYFWzQunlbxtsmxlIIAAwEkRKRIRKR+2K3nWlAE12Ko4beBT/8ATgmVV2uT9gAQwnXk6cmi8I/g9PpDWKn2sELp7a2bcpUmCIBgEBsRKRIRN/U053whaFdiLOG+AhE0aJNq5XvIvtFYMDbOR7Ok7znHUyAdPk/fpAxXYMJC6eV8hd0qTEAHBkCQJSJYlI5G8ALmQEtByi+DbgUITaLMqXavOOJEmCj7y27BzPCdJk7aJi06enx6QMYhiSEL/Km3Z2VJi8BFUZKbERsIRcC7RtKUZUbVwfe93NEcfhAoGEeHhHhO8s1wiPY9Pj0jHtpj/Z/DjBADIBE5OH8ZWcnd6Q8J0nGTZ2wNOnp8ekXSlWOX/wCcAEEBEsfyF54nI8J5wW82etdPT49IqCldq/8A1iACKJEafyC03zp4TyZYm5DQ89Pj0gY6ELdkz/18YICCEiaT8Zzm0ZvI9nnEUvENfPT49IqCl91z/X9YgkEJEZEyHrIesh6yHrIesh6yHrIesh6yHrIesFYTmkeE8mQmmsBXh7+PSH7zQihMGf8ATZ/02f8ATZ/02f8ATZ/02f8ATZ/02f8ATZ/02f8ATZ/3WKlFJdJNP9+g4D/pqSAEMNY/RZtKiCySJPj0tu/CTWMwREczOQfZ27fvr6M15nIBonZCJyOJiY84mOeTMxlhr8ChMoe7GCCRE7H6qBaB5cQKR9n0RDKZ9bSLmkDNecL58f1fv25BbOFnLDmsQLQeJXP2/o+hr8D/APtTgBIMBowcg+YCEAlCr7+rOiIiKhDBNwYAuvYmgoJJuH0docGfs/R9jWD/AAwLcAED2Sxi664QCwQMwXX04wRZycmEBQw947SXSCkUGY8YTe9JhChV1eK9PiwWCg6OsuEfMCIiiB3GPI0IhNFNVucEEMolFAmIx/xc4E3WyTEvHThJhLJ8Yh6rWEmQDY5+heHOVzCbHCo8H3zxbn8gA/rLfwLD7A+Anx2idKkzaLHw/QJkwiqFJiFPxjuFJwPQCinz1gXaNqNASLhRPXON2A5EtSomjc3/AJ3R/J+0DP2fq+wRF9VQ7ysH0EyBjjkoHgIjc3OXuxEbDYneqxsseKrhc0z4yKnVCKmIbOc1HnI3uYmJVdqZrrC4qoZ0XVbiIyHo0G8uu6iDJ1iVgRkwm47N5O82jgFKhmnAjHc8ihDBjzCYiBYKEAEsBOL3ZSWJ5rfv5xxKI0DpgpNoAXZKX3Qz2r54K3TKEgAQSxNPn6QTmy4KJk6kDGmE1MuAaW9NwB75HnIXmEFKYQpOXif87oCqdkAUtjSrziisXg+gADaKwmCw3hvgLW8M/Z+51kVDv7ADn+i6YPqyJyT/AG3b6MUWe48GDJZnda8rt7YXhEpSR7uWXrMY2kIPKR8wezgAKQNyrjzWaRPOiv7sDEbuaMIEXgRPiTS4AABAaP8APaAwk8IAHkPxh0P1xx7RCmAhBA2jfWGfs/c6yKh39gBz/UdPt88P9v3+hlSsOy3HxxwfLjyokJlR5Vn6cEP9pgTBgFABAa9jHAESUEPobp1tAgz9n6usRSYE+QR/rHJIEntD/Z9O/s4uf6jp9rlh/pu30Jf9EMfocgLTWoLI/JH84MojySYwgFT6rRvlcq6tlBHatrXPoCnWGUqjr7QMv7+NTknDBtORVkivv+9045tJ5BMbeyeNqZwSFfEj+cKugQu28IdTK7glxXBzyBSPLAfSwrAcjY+lBPwMaGqJ7Q3iEPcjE0UCaR+hrScE3Cg/v/GLEihwK/EAvEO8RhDdBrvBMSiE8YeTfDaCe2ZfQ2ZKUeICx9wUFwI04mGDDDp/94U1eBlU8C34MPyVcjER9UCLSSAZy/Sif89M5oQItfEidYfF1BDmEY1er+0yP9gPLEqRIzrrDdKK0thUwxcYZGl84OzIqVUmkUW5JkLILuTYTCJHuZvxFOe6sflxrOHQaEqDexiGC8c24ZwFDIn+oxscEQUuCI/R/JuxCUSdQRpTU5Kr2EzioFedYaoCSO4AC2op+kxhbSJAC5FELoWQzWpglDTE7HbjZkaVnu6EQIjQycaH3TZlAuJJBahOZLYzK6bl4LpU9hm1DSS9oJ+U4CEkwGeYj+8BTVuAj4alo8jIcaAYAxBC0KkifjAeSNQRSiMWXh/nYKm1ExiSqNSQ/c2WuRXB0CeCPqAV4QHslmMRe0L4UYYEWgQGJX7YVyNLqEH1PDzYe+4jGgCQs98r+u+sQvuUTg8zIBk90v15MlAkyEoaMvgBjMo8LP7P1SFYoSYxJVnaRP8A5PsAAAAAAAAAAAAAAAAAAAAAAAAAAAAAAAAAAAAAAAAAAAAAAAAAAAAAAAAAAAAAAAAAAAAAAAAAAAAAAAAAAAAAAAAAAAAAAAAAAAAAAAAAAAAAP//Z;" vertex="1" parent="9Bd9de8_5ob_pkCl6xLQ-25">
          <mxGeometry x="10" y="10" width="135" height="180" as="geometry" />
        </mxCell>
        <mxCell id="9Bd9de8_5ob_pkCl6xLQ-26" value="" style="endArrow=classic;startArrow=classic;html=1;rounded=0;exitX=1;exitY=0.5;exitDx=0;exitDy=0;entryX=0;entryY=0.5;entryDx=0;entryDy=0;" edge="1" parent="9Bd9de8_5ob_pkCl6xLQ-38" source="9Bd9de8_5ob_pkCl6xLQ-8" target="9Bd9de8_5ob_pkCl6xLQ-20">
          <mxGeometry width="50" height="50" relative="1" as="geometry">
            <mxPoint x="390" y="450" as="sourcePoint" />
            <mxPoint x="440" y="400" as="targetPoint" />
          </mxGeometry>
        </mxCell>
        <mxCell id="9Bd9de8_5ob_pkCl6xLQ-27" value="Selenium (as Cypress is not supported for Flutter Web)" style="rounded=1;whiteSpace=wrap;html=1;" vertex="1" parent="9Bd9de8_5ob_pkCl6xLQ-38">
          <mxGeometry x="707" y="610" width="120" height="60" as="geometry" />
        </mxCell>
        <mxCell id="9Bd9de8_5ob_pkCl6xLQ-30" value="" style="endArrow=classic;startArrow=classic;html=1;rounded=0;entryX=0.5;entryY=1;entryDx=0;entryDy=0;exitX=0.5;exitY=0;exitDx=0;exitDy=0;" edge="1" parent="9Bd9de8_5ob_pkCl6xLQ-38" source="9Bd9de8_5ob_pkCl6xLQ-27" target="9Bd9de8_5ob_pkCl6xLQ-20">
          <mxGeometry width="50" height="50" relative="1" as="geometry">
            <mxPoint x="601" y="604" as="sourcePoint" />
            <mxPoint x="651" y="554" as="targetPoint" />
          </mxGeometry>
        </mxCell>
        <mxCell id="9Bd9de8_5ob_pkCl6xLQ-31" value="pgadmin" style="rounded=1;whiteSpace=wrap;html=1;" vertex="1" parent="9Bd9de8_5ob_pkCl6xLQ-38">
          <mxGeometry x="45" y="240" width="120" height="60" as="geometry" />
        </mxCell>
        <mxCell id="9Bd9de8_5ob_pkCl6xLQ-32" value="" style="endArrow=classic;startArrow=classic;html=1;rounded=0;exitX=0.5;exitY=0;exitDx=0;exitDy=0;exitPerimeter=0;entryX=0.5;entryY=1;entryDx=0;entryDy=0;" edge="1" parent="9Bd9de8_5ob_pkCl6xLQ-38" source="9Bd9de8_5ob_pkCl6xLQ-1" target="9Bd9de8_5ob_pkCl6xLQ-31">
          <mxGeometry width="50" height="50" relative="1" as="geometry">
            <mxPoint x="390" y="450" as="sourcePoint" />
            <mxPoint x="440" y="400" as="targetPoint" />
          </mxGeometry>
        </mxCell>
        <mxCell id="9Bd9de8_5ob_pkCl6xLQ-36" value="" style="endArrow=classic;startArrow=classic;html=1;rounded=0;entryX=0;entryY=0;entryDx=0;entryDy=0;exitX=0.965;exitY=0.955;exitDx=0;exitDy=0;exitPerimeter=0;" edge="1" parent="9Bd9de8_5ob_pkCl6xLQ-38" source="9Bd9de8_5ob_pkCl6xLQ-14" target="9Bd9de8_5ob_pkCl6xLQ-24">
          <mxGeometry width="50" height="50" relative="1" as="geometry">
            <mxPoint x="600" y="240" as="sourcePoint" />
            <mxPoint x="650" y="190" as="targetPoint" />
          </mxGeometry>
        </mxCell>
      </root>
    </mxGraphModel>
  </diagram>
</mxfile>
